<svg xmlns="http://www.w3.org/2000/svg" version="1.1" xmlns:xlink="http://www.w3.org/1999/xlink" xmlns:svgjs="http://svgjs.dev/svgjs" width="1440" height="560" preserveAspectRatio="none" viewBox="0 0 1440 560"><g clip-path="url(&quot;#SvgjsClipPath1017&quot;)" fill="none"><rect width="1440" height="560" x="0" y="0" fill="#0e2a47"></rect><circle r="93.335" cx="-81.78" cy="-7.88" stroke="#365aa3" stroke-opacity="0.25" stroke-width="2"></circle><circle r="93.335" cx="358.77" cy="365.47" stroke="#365aa3" stroke-opacity="0.25" stroke-width="2"></circle><circle r="93.335" cx="692.1" cy="813.58" stroke="#365aa3" stroke-opacity="0.25" stroke-width="2"></circle><circle r="115.82" cx="57.21" cy="409.2" stroke="#365aa3" stroke-opacity="0.25" stroke-width="2"></circle><circle r="166.825" cx="1387.1" cy="24.48" stroke="#365aa3" stroke-opacity="0.25" stroke-width="2"></circle><circle r="69.445" cx="872.74" cy="160.09" stroke="#365aa3" stroke-opacity="0.25" stroke-width="2"></circle><circle r="85.83" cx="590.91" cy="390.61" stroke="#365aa3" stroke-opacity="0.25" stroke-width="2"></circle><circle r="161.255" cx="674.01" cy="80.93" stroke="#365aa3" stroke-opacity="0.25" stroke-width="2"></circle><circle r="180.575" cx="1369" cy="225.76" stroke="#365aa3" stroke-opacity="0.25" stroke-width="2"></circle><circle r="145.89" cx="51.74" cy="511.13" stroke="#365aa3" stroke-opacity="0.25" stroke-width="2"></circle><circle r="155.845" cx="587.52" cy="345.31" stroke="#365aa3" stroke-opacity="0.25" stroke-width="2"></circle><circle r="121.19" cx="407.69" cy="298.93" stroke="#365aa3" stroke-opacity="0.25" stroke-width="2"></circle><circle r="107.735" cx="1054.75" cy="150.22" stroke="#365aa3" stroke-opacity="0.25" stroke-width="2"></circle><circle r="52.565" cx="73.26" cy="71.53" stroke="#365aa3" stroke-opacity="0.25" stroke-width="2"></circle><circle r="154.16" cx="422.16" cy="85.18" stroke="#365aa3" stroke-opacity="0.25" stroke-width="2"></circle><circle r="112.38" cx="1354.15" cy="183.61" stroke="#365aa3" stroke-opacity="0.25" stroke-width="2"></circle><circle r="84.905" cx="1219.74" cy="318.7" stroke="#365aa3" stroke-opacity="0.25" stroke-width="2"></circle><circle r="178.315" cx="1112.28" cy="334.58" stroke="#365aa3" stroke-opacity="0.25" stroke-width="2"></circle><circle r="68.76" cx="1129.84" cy="99.43" stroke="#365aa3" stroke-opacity="0.25" stroke-width="2"></circle><circle r="165.445" cx="94.18" cy="75.31" stroke="#365aa3" stroke-opacity="0.25" stroke-width="2"></circle><circle r="132.34" cx="472.11" cy="143.38" stroke="#365aa3" stroke-opacity="0.25" stroke-width="2"></circle><circle r="108.64" cx="420.18" cy="109.58" stroke="#365aa3" stroke-opacity="0.25" stroke-width="2"></circle><circle r="72.63" cx="1358.99" cy="2.81" stroke="#365aa3" stroke-opacity="0.25" stroke-width="2"></circle><circle r="88.75" cx="415.03" cy="353.9" stroke="#365aa3" stroke-opacity="0.25" stroke-width="2"></circle><circle r="49.69" cx="326.7" cy="453.34" stroke="#365aa3" stroke-opacity="0.25" stroke-width="2"></circle><circle r="76.755" cx="424.53" cy="263.43" stroke="#365aa3" stroke-opacity="0.25" stroke-width="2"></circle><circle r="176.5" cx="29.23" cy="125.83" stroke="#365aa3" stroke-opacity="0.25" stroke-width="2"></circle><circle r="122.785" cx="1187.1" cy="416.68" stroke="#365aa3" stroke-opacity="0.25" stroke-width="2"></circle><circle r="148.11" cx="853.12" cy="59.16" stroke="#365aa3" stroke-opacity="0.25" stroke-width="2"></circle><circle r="132" cx="523.69" cy="465.48" stroke="#365aa3" stroke-opacity="0.25" stroke-width="2"></circle><circle r="182.66" cx="475.58" cy="59.71" stroke="#365aa3" stroke-opacity="0.25" stroke-width="2"></circle><circle r="87.2" cx="368.43" cy="70.99" stroke="#365aa3" stroke-opacity="0.25" stroke-width="2"></circle><circle r="84.84" cx="1432.89" cy="85.16" stroke="#365aa3" stroke-opacity="0.25" stroke-width="2"></circle><circle r="135.345" cx="423.79" cy="308.22" stroke="#365aa3" stroke-opacity="0.25" stroke-width="2"></circle><circle r="58.99" cx="498.03" cy="437.36" stroke="#365aa3" stroke-opacity="0.25" stroke-width="2"></circle><circle r="59.03" cx="28.93" cy="492.45" stroke="#365aa3" stroke-opacity="0.25" stroke-width="2"></circle><circle r="89.725" cx="652.65" cy="524.07" stroke="#365aa3" stroke-opacity="0.25" stroke-width="2"></circle><circle r="176.875" cx="628.98" cy="529.93" stroke="#365aa3" stroke-opacity="0.25" stroke-width="2"></circle><circle r="180.72" cx="483.48" cy="550.28" stroke="#365aa3" stroke-opacity="0.25" stroke-width="2"></circle><circle r="112.735" cx="1290.9" cy="528.06" stroke="#365aa3" stroke-opacity="0.25" stroke-width="2"></circle></g><defs><clipPath id="SvgjsClipPath1017"><rect width="1440" height="560" x="0" y="0"></rect></clipPath></defs></svg>