<svg id="visual" viewBox="0 0 900 600" width="900" height="600" xmlns="http://www.w3.org/2000/svg" xmlns:xlink="http://www.w3.org/1999/xlink" version="1.1"><rect x="0" y="0" width="900" height="600" fill="#140021"></rect><path d="M0 372L53 372L53 338L106 338L106 217L159 217L159 303L212 303L212 377L265 377L265 310L318 310L318 279L371 279L371 350L424 350L424 312L476 312L476 226L529 226L529 329L582 329L582 219L635 219L635 212L688 212L688 310L741 310L741 232L794 232L794 385L847 385L847 380L900 380L900 385L900 601L900 601L847 601L847 601L794 601L794 601L741 601L741 601L688 601L688 601L635 601L635 601L582 601L582 601L529 601L529 601L476 601L476 601L424 601L424 601L371 601L371 601L318 601L318 601L265 601L265 601L212 601L212 601L159 601L159 601L106 601L106 601L53 601L53 601L0 601Z" fill="#61ce70"></path><path d="M0 452L53 452L53 464L106 464L106 508L159 508L159 403L212 403L212 370L265 370L265 401L318 401L318 399L371 399L371 399L424 399L424 380L476 380L476 360L529 360L529 477L582 477L582 481L635 481L635 416L688 416L688 513L741 513L741 457L794 457L794 437L847 437L847 445L900 445L900 386L900 601L900 601L847 601L847 601L794 601L794 601L741 601L741 601L688 601L688 601L635 601L635 601L582 601L582 601L529 601L529 601L476 601L476 601L424 601L424 601L371 601L371 601L318 601L318 601L265 601L265 601L212 601L212 601L159 601L159 601L106 601L106 601L53 601L53 601L0 601Z" fill="#00294b"></path></svg>