<svg width="393" height="185" viewBox="0 0 393 185" fill="none" xmlns="http://www.w3.org/2000/svg">
<path d="M63.7707 84.84L57.8907 76.01L8.4707 1.74L11.0907 0L65.5207 81.81L67.4807 84.76C67.1407 84.76 66.8107 84.76 66.4807 84.76C66.2807 84.76 66.0807 84.76 65.8907 84.77C65.1707 84.78 64.4607 84.8 63.7707 84.84Z" fill="#CEFD55"/>
<path d="M129.982 184.36L75.5416 102.55L73.9316 100.13C74.2016 100.13 74.4816 100.11 74.7416 100.1C75.0216 100.09 75.3116 100.07 75.5816 100.06C76.2516 100.02 76.9116 99.9599 77.5416 99.8999L83.2016 108.4L132.592 182.64L129.982 184.36Z" fill="#CEFD55"/>
<path d="M66.4909 84.7499L65.5309 81.8099L40.1309 3.32986L43.1209 2.35986L68.8109 81.7399L69.8009 84.8099C69.4809 84.7999 69.1709 84.7899 68.8509 84.7699C68.3909 84.7599 67.9309 84.7499 67.4809 84.7499C67.1509 84.7499 66.8209 84.7499 66.4909 84.7499Z" fill="#CEFD55"/>
<path d="M97.9507 181.99L72.2607 102.61L71.4707 100.15C71.7307 100.15 71.9807 100.15 72.2307 100.15C72.8107 100.15 73.3807 100.14 73.9407 100.12C74.2107 100.12 74.4907 100.1 74.7507 100.09L75.5407 102.55L100.941 181.03L97.9507 181.99Z" fill="#CEFD55"/>
<path d="M68.8602 84.7798L68.8202 81.7498L67.7402 8.0998L70.8802 8.0498L71.9502 81.5198L72.0002 84.9498C71.6702 84.9198 71.3302 84.8998 70.9902 84.8798C70.6002 84.8498 70.2102 84.8298 69.8102 84.8098C69.8002 84.8098 69.8002 84.8098 69.8002 84.8098C69.4802 84.7998 69.1702 84.7898 68.8602 84.7798Z" fill="#CEFD55"/>
<path d="M70.1901 176.3L69.1201 102.83L69.0801 100.1C69.0901 100.1 69.1201 100.1 69.1301 100.1C69.3901 100.11 69.6401 100.12 69.8901 100.13C70.4201 100.15 70.9501 100.16 71.4701 100.16C71.7301 100.16 71.9801 100.16 72.2301 100.16L72.2701 102.62L73.3401 176.26L70.1901 176.3Z" fill="#CEFD55"/>
<path d="M71 84.8801L71.96 81.5201L90.93 15.3701L93.96 16.2401L75.32 81.1901L74.18 85.1701C73.79 85.1201 73.4 85.0801 73 85.0401C72.67 85.0101 72.34 84.9801 72 84.9501C71.67 84.9201 71.34 84.9001 71 84.8801Z" fill="#CEFD55"/>
<path d="M47.1191 168.11L65.7391 103.17L66.6691 99.9399C66.9891 99.9699 67.3191 99.9899 67.6491 100.01C68.1191 100.04 68.5891 100.07 69.0691 100.09C69.0791 100.09 69.1091 100.09 69.1191 100.09C69.3791 100.1 69.6291 100.11 69.8791 100.12L69.0991 102.82L50.1291 168.97L47.1191 168.11Z" fill="#CEFD55"/>
<path d="M73 85.04L75.32 81.19L109.48 24.5L112.17 26.12L79.14 80.94L76.41 85.47C75.95 85.39 75.47 85.32 74.99 85.26C74.72 85.22 74.46 85.19 74.18 85.16C73.8 85.12 73.4 85.07 73 85.04Z" fill="#CEFD55"/>
<path d="M28.9004 158.24L61.9404 103.41L64.1904 99.6699C64.5804 99.7199 64.9904 99.7699 65.3904 99.8099C65.8104 99.8599 66.2404 99.8999 66.6804 99.9299C67.0004 99.9599 67.3304 99.9799 67.6604 99.9999L65.7504 103.16L31.5904 159.85L28.9004 158.24Z" fill="#CEFD55"/>
<path d="M74.9902 85.2698L79.1402 80.9498L123.41 34.8198L125.68 36.9998L83.3602 81.0998L78.7402 85.9098C78.2002 85.7998 77.6402 85.6898 77.0702 85.5898C76.8502 85.5498 76.6402 85.5198 76.4102 85.4898C75.9502 85.3998 75.4702 85.3298 74.9902 85.2698Z" fill="#CEFD55"/>
<path d="M15.3906 147.37L57.7106 103.27L61.5506 99.27C62.0206 99.35 62.5006 99.44 62.9806 99.51C63.3706 99.57 63.7706 99.62 64.1806 99.68C64.5706 99.73 64.9806 99.78 65.3806 99.82L61.9206 103.42L17.6506 149.55L15.3906 147.37Z" fill="#CEFD55"/>
<path d="M77.0703 85.5802L83.3603 81.0902L132.9 45.7002L134.73 48.2602L87.6703 81.8702L81.2203 86.4802C80.6203 86.3202 79.9903 86.1602 79.3503 86.0202C79.1503 85.9802 78.9503 85.9302 78.7403 85.8902C78.2003 85.7802 77.6403 85.6802 77.0703 85.5802Z" fill="#CEFD55"/>
<path d="M8.17961 138.65L6.34961 136.09L53.4096 102.48L58.7296 98.6802C59.2396 98.8102 59.7796 98.9202 60.3196 99.0302C60.7196 99.1202 61.1396 99.2002 61.5596 99.2702C62.0296 99.3502 62.5096 99.4402 62.9896 99.5102L57.7196 103.27L8.17961 138.65Z" fill="#CEFD55"/>
<path d="M79.3496 86.0201L87.6696 81.8701L138.29 56.6201L139.7 59.4301L91.5996 83.4301L83.8496 87.2901C83.2396 87.0801 82.5996 86.8701 81.9296 86.6801C81.6996 86.6101 81.4496 86.5401 81.2096 86.4801C80.6096 86.3201 79.9896 86.1701 79.3496 86.0201Z" fill="#CEFD55"/>
<path d="M2.77914 127.73L1.36914 124.92L49.4891 100.92L55.6991 97.8203C56.1991 97.9903 56.7191 98.1503 57.2591 98.3003C57.7291 98.4303 58.2191 98.5603 58.7191 98.6803C59.2291 98.8103 59.7691 98.9203 60.3091 99.0303L53.3991 102.48L2.77914 127.73Z" fill="#CEFD55"/>
<path d="M81.9395 86.6799L91.5994 83.4199L140.069 67.1099L141.069 70.0899L94.6895 85.7099L86.5894 88.4399C86.0594 88.1799 85.4995 87.9299 84.8995 87.6799C84.5595 87.5499 84.2095 87.4199 83.8595 87.2899C83.2395 87.0799 82.6095 86.8699 81.9395 86.6799Z" fill="#CEFD55"/>
<path d="M1 117.24L0 114.26L46.38 98.6498L52.56 96.5698C52.97 96.7698 53.4 96.9598 53.86 97.1398C54.44 97.3798 55.06 97.5998 55.71 97.8098C56.21 97.9798 56.73 98.1398 57.27 98.2898L49.5 100.9L1 117.24Z" fill="#CEFD55"/>
<path d="M84.9004 87.6798L94.6904 85.7098L138.78 76.8198L139.4 79.8998L96.6004 88.5298L89.1604 90.0298C88.8104 89.7498 88.4304 89.4798 88.0004 89.2198C87.5704 88.9498 87.1004 88.6898 86.5804 88.4398C86.0604 88.1698 85.5004 87.9198 84.9004 87.6798Z" fill="#CEFD55"/>
<path d="M2.29969 107.54L1.67969 104.46L44.4697 95.8298L49.6597 94.7798C49.8897 94.9798 50.1397 95.1698 50.4197 95.3498C51.0397 95.7698 51.7497 96.1798 52.5497 96.5698C52.9597 96.7698 53.3897 96.9598 53.8497 97.1398L46.3697 98.6498L2.29969 107.54Z" fill="#CEFD55"/>
<path d="M88.0098 89.21L96.6098 88.53L134.98 85.48L135.22 88.62L97.0598 91.66L90.9198 92.15C90.8098 91.9 90.6698 91.65 90.4898 91.4C90.1698 90.93 89.7198 90.47 89.1698 90.04C88.8198 89.75 88.4398 89.47 88.0098 89.21Z" fill="#CEFD55"/>
<path d="M6.09961 98.8801L5.84961 95.7401L44.0096 92.7001L47.9096 92.3901C47.9496 92.5501 48.0096 92.7001 48.0896 92.8601C48.3896 93.5201 48.9296 94.1601 49.6696 94.7701C49.8996 94.9701 50.1496 95.1601 50.4296 95.3401L44.4796 95.8101L6.09961 98.8801Z" fill="#CEFD55"/>
<path d="M90.8705 94.5499C90.9605 94.3599 91.0405 94.1599 91.0805 93.9499C91.1205 93.7799 91.1505 93.6099 91.1605 93.4299C91.1805 92.9899 91.1005 92.5599 90.9105 92.1299C90.8005 91.8799 90.6605 91.6299 90.4805 91.3799L97.0505 91.6399L129.25 92.9099L129.13 96.0499L96.0005 94.7399L90.8705 94.5499Z" fill="#CEFD55"/>
<path d="M11.8301 91.4398L11.9501 88.2998L45.0901 89.6098L48.4701 89.7398C48.3701 89.8698 48.2901 89.9898 48.2201 90.1198C47.9701 90.5598 47.8201 91.0098 47.8001 91.4798C47.7901 91.7898 47.8201 92.0998 47.9201 92.3998C47.9601 92.5598 48.0201 92.7098 48.1001 92.8698L44.0301 92.7098L11.8301 91.4398Z" fill="#CEFD55"/>
<path d="M88.7109 96.75C88.9509 96.6 89.1809 96.44 89.3809 96.28C90.0709 95.75 90.5709 95.17 90.8609 94.56C90.9509 94.37 91.0309 94.17 91.0709 93.96L95.9809 94.76L122.151 99.05L121.641 102.15L93.5209 97.55L88.7109 96.75Z" fill="#CEFD55"/>
<path d="M18.9102 85.3102L19.4202 82.2002L47.5202 86.8002L51.5102 87.4502C51.2702 87.5602 51.0402 87.6802 50.8302 87.8002C49.7902 88.3802 48.9902 89.0202 48.4802 89.7202C48.3802 89.8502 48.3002 89.9702 48.2302 90.1002L45.1102 89.5902L18.9102 85.3102Z" fill="#CEFD55"/>
<path d="M85.291 98.31C85.641 98.2 85.961 98.08 86.281 97.95C87.211 97.59 88.031 97.18 88.711 96.74C88.951 96.59 89.181 96.43 89.381 96.27L93.531 97.54L114.241 103.84L113.331 106.85L90.081 99.77L85.291 98.31Z" fill="#CEFD55"/>
<path d="M26.8301 80.51L27.7401 77.5L51.0001 84.59L55.6701 86.01C55.3001 86.1 54.9401 86.2 54.5901 86.3C53.4301 86.64 52.3901 87.04 51.5001 87.47C51.2601 87.58 51.0301 87.7 50.8201 87.82L47.5101 86.81L26.8301 80.51Z" fill="#CEFD55"/>
<path d="M81.709 99.2597C82.079 99.1797 82.449 99.0997 82.799 99.0197C83.689 98.8197 84.529 98.5797 85.289 98.3097C85.639 98.1997 85.959 98.0797 86.279 97.9497L90.079 99.7697L105.959 107.36L104.609 110.2L85.999 101.31L81.709 99.2597Z" fill="#CEFD55"/>
<path d="M35.1094 76.9899L36.4694 74.1499L55.0594 83.0299L59.6694 85.2299C59.2394 85.2899 58.8194 85.3499 58.4094 85.4299C57.4494 85.5899 56.5294 85.7799 55.6694 85.9999C55.2994 86.0899 54.9394 86.1899 54.5894 86.2899L50.9994 84.5899L35.1094 76.9899Z" fill="#CEFD55"/>
<path d="M78.4492 99.7803C78.7992 99.7403 79.1392 99.6903 79.4792 99.6403C80.2492 99.5303 80.9892 99.4003 81.7092 99.2503C82.0792 99.1703 82.4492 99.0903 82.7992 99.0103L85.9992 101.3L97.7292 109.69L95.8992 112.25L81.7892 102.16L78.4492 99.7803Z" fill="#CEFD55"/>
<path d="M43.3398 74.6601L45.1698 72.1001L59.2798 82.2001L63.0398 84.8901C62.6298 84.9201 62.2298 84.9601 61.8298 84.9901C61.0798 85.0601 60.3598 85.1401 59.6598 85.2401C59.2298 85.3001 58.8098 85.3601 58.3998 85.4401L55.0398 83.0401L43.3398 74.6601Z" fill="#CEFD55"/>
<path d="M61.8409 84.9902L51.2109 73.3602L53.5309 71.2402L65.8809 84.7602C65.1609 84.7702 64.4509 84.8002 63.7509 84.8302C63.5109 84.8502 63.2709 84.8602 63.0309 84.8802C62.6409 84.9102 62.2309 84.9502 61.8409 84.9902Z" fill="#CEFD55"/>
<path d="M87.5416 113.12L75.6016 100.05C76.2716 100.01 76.9316 99.9504 77.5616 99.8904C77.8716 99.8604 78.1716 99.8204 78.4616 99.7904C78.8116 99.7504 79.1516 99.7004 79.4916 99.6504L89.8616 111L87.5416 113.12Z" fill="#CEFD55"/>
<path d="M153.73 32.52H180.24V35.57H156.98V53.66H178.65V56.71H156.98V75.8H180.11V78.91H153.73V32.52Z" fill="#CEFD55"/>
<path d="M186 45.7798H189.18V51.6098C190.9 47.5698 195.61 45.0498 201.11 45.0498V48.0998C193.95 48.0998 189.18 51.6098 189.18 56.5798V78.9098H186V45.7798Z" fill="#CEFD55"/>
<path d="M226.03 71.3601H225.9C223.71 76.3301 219.21 79.4401 212.38 79.4401C205.62 79.4401 201.25 75.6601 201.25 69.4301C201.25 62.6001 207.48 58.3601 217.49 58.3601H225.64V58.2901C225.64 51.9901 221.66 48.0201 215.9 48.0201C209.67 48.0201 206.09 51.5301 205.69 57.1601H202.44C202.97 49.6701 207.74 45.1001 215.89 45.1001C223.44 45.1001 228.75 50.0701 228.75 58.0901V78.9001H226.56L226.03 71.3601ZM212.91 76.4601C220.99 76.4601 225.63 71.8201 225.63 63.6701V61.1501H217.55C209.53 61.1501 204.5 64.4001 204.5 69.4301C204.49 73.7401 207.74 76.4601 212.91 76.4601Z" fill="#CEFD55"/>
<path d="M239.09 86.07H251.55C255.79 86.07 258.31 83.55 258.31 79.24L258.38 74.53L258.78 71.15L258.38 71.02L257.05 74.2C254.6 77.65 251.02 79.44 246.45 79.44C237.44 79.44 232.07 72.95 232.07 62.21C232.07 51.47 237.44 44.98 246.45 44.98C251.02 44.98 254.6 46.77 256.99 50.15L258.32 53.4L258.72 53.27L258.32 49.82V45.78H261.5V78.85C261.5 85.34 257.72 89.12 251.23 89.12H239.1V86.07H239.09ZM246.64 76.46C254 76.46 258.3 71.16 258.3 62.21C258.3 53.26 253.99 47.96 246.64 47.96C239.55 47.96 235.31 53.26 235.31 62.21C235.31 71.16 239.55 76.46 246.64 76.46Z" fill="#CEFD55"/>
<path d="M265.469 62.21C265.399 51.61 271.229 44.98 280.639 44.98C290.049 44.98 295.879 51.61 295.819 62.21C295.889 72.81 290.049 79.44 280.639 79.44C271.229 79.44 265.399 72.82 265.469 62.21ZM280.639 76.46C287.999 76.46 292.699 70.96 292.699 62.21C292.699 53.46 287.989 47.9 280.639 47.9C273.279 47.9 268.649 53.47 268.649 62.21C268.649 70.96 273.289 76.46 280.639 76.46Z" fill="#CEFD55"/>
<path d="M315.571 48.1601C309.871 48.1601 304.171 52.4701 302.981 59.0301V78.9101H299.801V45.7801H302.981L302.911 50.9501L302.511 54.1301L302.911 54.2601L304.371 51.4101C306.491 47.8301 311.131 45.1201 315.971 45.1201C323.191 45.1201 327.701 50.2901 327.701 58.4401V78.9201H324.591V58.1001C324.581 51.9401 321.271 48.1601 315.571 48.1601Z" fill="#CEFD55"/>
<path d="M156.58 135.66L155.25 132.48L154.85 132.55L155.25 136V151.84H152.07V107.17H155.25L155.18 111.28L154.78 114.73L155.18 114.8L156.51 111.62C158.96 108.17 162.61 106.38 167.25 106.38C176.2 106.38 181.56 112.87 181.5 123.61C181.57 134.35 176.2 140.84 167.25 140.84C162.61 140.83 158.96 139.04 156.58 135.66ZM166.92 137.85C174.01 137.85 178.25 132.55 178.25 123.6C178.25 114.65 174.01 109.35 166.92 109.35C159.63 109.35 155.26 114.65 155.26 123.6C155.26 132.55 159.63 137.85 166.92 137.85Z" fill="#CEFD55"/>
<path d="M184.939 132.54V92.5801H188.119V132.34C188.119 135.45 189.709 137.31 192.429 137.31H194.679V140.29H192.099C187.529 140.3 184.939 137.45 184.939 132.54Z" fill="#CEFD55"/>
<path d="M221.46 132.74H221.33C219.14 137.71 214.64 140.82 207.81 140.82C201.05 140.82 196.68 137.04 196.68 130.81C196.68 123.98 202.91 119.74 212.92 119.74H221.07V119.67C221.07 113.37 217.09 109.4 211.33 109.4C205.1 109.4 201.52 112.91 201.12 118.54H197.87C198.4 111.05 203.17 106.48 211.32 106.48C218.87 106.48 224.18 111.45 224.18 119.47V140.28H221.99L221.46 132.74ZM208.34 137.85C216.42 137.85 221.06 133.21 221.06 125.06V122.54H212.98C204.96 122.54 199.93 125.79 199.93 130.82C199.92 135.13 203.17 137.85 208.34 137.85Z" fill="#CEFD55"/>
<path d="M232.001 132.28V110.15H226.301V107.17H229.681C231.141 107.17 232.001 106.24 232.001 104.85V98.5601H235.181V107.17H243.261V110.15H235.181V132.08C235.181 135.33 236.901 137.32 239.891 137.32H243.271V140.3H239.631C234.781 140.3 232.001 137.32 232.001 132.28Z" fill="#CEFD55"/>
<path d="M250.36 110.15H244.66V107.17H247.77C249.56 107.17 250.42 106.31 250.42 104.52V101.87C250.42 95.7698 253.6 92.5898 259.56 92.5898H261.55V95.5698H259.63C255.52 95.5698 253.53 97.6898 253.53 102.06V107.16H261.61V110.14H253.53V140.29H250.35V110.15H250.36Z" fill="#CEFD55"/>
<path d="M261.76 123.6C261.69 113 267.52 106.37 276.93 106.37C286.34 106.37 292.17 113 292.11 123.6C292.18 134.2 286.34 140.83 276.93 140.83C267.52 140.83 261.69 134.2 261.76 123.6ZM276.93 137.85C284.29 137.85 288.99 132.35 288.99 123.6C288.99 114.85 284.28 109.29 276.93 109.29C269.57 109.29 264.94 114.86 264.94 123.6C264.94 132.35 269.58 137.85 276.93 137.85Z" fill="#CEFD55"/>
<path d="M296.09 107.16H299.27V112.99C300.99 108.95 305.7 106.43 311.2 106.43V109.48C304.04 109.48 299.27 112.99 299.27 117.96V140.29H296.09V107.16Z" fill="#CEFD55"/>
<path d="M314.641 107.16H317.821L317.751 111.8L317.351 114.92L317.751 115.05L319.211 112.2C321.001 109.08 324.451 106.5 328.751 106.5C334.781 106.5 338.621 109.75 339.751 115.51C341.341 109.94 345.381 106.5 351.151 106.5C357.981 106.5 361.821 111.14 361.821 119.29V140.3H358.711V119.09C358.711 112.99 355.861 109.55 350.631 109.55C344.731 109.55 341.091 113.66 340.091 120.22V140.3H336.911V119.09C336.911 112.99 333.861 109.48 328.161 109.48C322.791 109.48 319.151 113.99 317.821 120.94V140.29H314.641V107.16Z" fill="#CEFD55"/>
<path d="M365.15 129.3L368.26 129.1C368.66 134.93 372.37 137.85 379.53 137.85C385.96 137.85 389.67 135.27 389.67 130.76C389.67 126.52 385.76 125.33 378.21 123.93C370.06 122.54 366.15 120.35 366.15 115.25C366.15 110.08 370.52 106.37 378.61 106.37C386.63 106.37 391.2 110.08 392.19 117.04L389.01 117.24C388.48 111.94 384.9 109.29 378.41 109.29C372.51 109.29 369.33 111.61 369.33 115.19C369.33 118.7 372.31 119.96 379.67 121.22C388.29 122.74 392.72 124.8 392.72 130.76C392.72 136.92 388.15 140.77 379.27 140.77C370.25 140.76 365.61 136.85 365.15 129.3Z" fill="#CEFD55"/>
</svg>
