<svg xmlns="http://www.w3.org/2000/svg" viewBox="0 0 392.84 184.36"><g id="Layer_2" data-name="Layer 2"><g id="Layer_1-2" data-name="Layer 1"><path d="M63.77,84.84,57.89,76,8.47,1.74,11.09,0,65.53,81.81l2,3h-1.6C65.17,84.78,64.46,84.8,63.77,84.84Z"/><path d="M130,184.36,75.55,102.54l-1.61-2.42q.41,0,.81,0l.84,0c.67,0,1.33-.09,2-.16l5.66,8.5,49.39,74.24Z"/><path d="M66.49,84.75l-1-2.94L40.13,3.33l3-1L68.81,81.74l1,3.07-.94,0c-.46,0-.92,0-1.37,0Z"/><path d="M98,182,72.27,102.61l-.8-2.45h.76c.58,0,1.15,0,1.71,0q.41,0,.81,0l.8,2.45L100.94,181Z"/><path d="M68.86,84.78l0-3L67.74,8.1l3.15,0L72,81.52,72,85l-1-.07-1.18-.07h0Z"/><path d="M70.19,176.3l-1.07-73.47,0-2.73h0l.76,0,1.58,0h.76l0,2.45,1.06,73.64Z"/><path d="M71,84.88l1-3.36,19-66.15,3,.87-18.63,65-1.14,4c-.38,0-.78-.1-1.18-.13L72,85Z"/><path d="M47.12,168.11l18.63-64.94.93-3.23,1,.07c.47,0,.95.06,1.43.09h0l.76,0-.77,2.7L50.14,169Z"/><path d="M73,85l2.32-3.85L109.48,24.5l2.7,1.62-33,54.82-2.73,4.54c-.46-.08-.94-.15-1.42-.21l-.81-.1C73.8,85.12,73.4,85.07,73,85Z"/><path d="M28.9,158.24l33-54.83,2.26-3.74,1.2.14,1.29.13,1,.07-1.9,3.16L31.59,159.86Z"/><path d="M75,85.27l4.15-4.33,44.27-46.13L125.68,37,83.36,81.09,78.74,85.9c-.54-.12-1.1-.22-1.67-.32l-.66-.1C76,85.4,75.47,85.33,75,85.27Z"/><path d="M15.39,147.37l42.33-44.1,3.84-4c.46.08.94.17,1.42.24l1.21.16,1.2.14-3.46,3.6L17.66,149.54Z"/><path d="M77.07,85.58l6.29-4.49L132.9,45.7l1.82,2.57-47,33.6-6.45,4.61L79.35,86l-.61-.12C78.2,85.78,77.64,85.68,77.07,85.58Z"/><path d="M8.18,138.65l-1.83-2.56,47.06-33.61,5.32-3.8c.51.13,1.05.24,1.59.35s.82.17,1.24.24.94.17,1.42.24l-5.26,3.76Z"/><path d="M79.35,86l8.32-4.15,50.62-25.25,1.41,2.82-48.1,24-7.75,3.86c-.61-.21-1.24-.42-1.91-.61l-.72-.2Z"/><path d="M2.78,127.73l-1.4-2.81,48.12-24,6.21-3.1c.49.17,1,.33,1.56.48s1,.26,1.46.38,1.05.24,1.59.35l-6.91,3.45Z"/><path d="M81.94,86.68l9.66-3.25,48.47-16.32,1,3L94.69,85.71l-8.1,2.72c-.53-.26-1.09-.51-1.69-.75l-1.05-.39C83.24,87.08,82.61,86.87,81.94,86.68Z"/><path d="M1,117.24l-1-3L46.38,98.65l6.18-2.08c.4.2.84.39,1.3.58s1.19.46,1.85.67c.49.17,1,.33,1.56.48l-7.77,2.62Z"/><path d="M84.9,87.68l9.79-2,44.08-8.89.62,3.08L96.6,88.53,89.17,90A10.76,10.76,0,0,0,88,89.21a15.61,15.61,0,0,0-1.42-.78C86.06,88.17,85.5,87.92,84.9,87.68Z"/><path d="M2.3,107.54l-.62-3.08,42.79-8.63,5.2-1a6.41,6.41,0,0,0,.75.57,14.71,14.71,0,0,0,2.14,1.22c.4.2.84.39,1.3.58l-7.48,1.5Z"/><path d="M88,89.21l8.59-.68,38.37-3,.25,3.13-38.17,3-6.14.48a3.74,3.74,0,0,0-.43-.74A6.17,6.17,0,0,0,89.17,90,10.76,10.76,0,0,0,88,89.21Z"/><path d="M6.1,98.88l-.25-3.13,38.16-3,3.9-.31a2.27,2.27,0,0,0,.18.47,5.45,5.45,0,0,0,1.58,1.91,6.41,6.41,0,0,0,.75.57l-6,.48Z"/><path d="M90.87,94.55a3,3,0,0,0,.21-.6,3,3,0,0,0,.08-.52,3,3,0,0,0-.25-1.3,3.74,3.74,0,0,0-.43-.74l6.57.26,32.2,1.26-.12,3.15L96,94.75Z"/><path d="M11.83,91.44,12,88.3l33.14,1.3,3.38.13a4.4,4.4,0,0,0-.26.39,2.94,2.94,0,0,0-.41,1.36,2.64,2.64,0,0,0,.11.92,2.27,2.27,0,0,0,.18.47L44,92.71Z"/><path d="M88.71,96.75a5.87,5.87,0,0,0,.68-.48,4.88,4.88,0,0,0,1.48-1.72,3,3,0,0,0,.21-.6l4.91.8L122.17,99l-.51,3.1-28.12-4.6Z"/><path d="M18.91,85.31l.51-3.1,28.1,4.6,4,.66a7.24,7.24,0,0,0-.68.35,7.06,7.06,0,0,0-2.35,1.91,4.4,4.4,0,0,0-.26.39l-3.12-.52Z"/><path d="M85.29,98.31c.35-.11.68-.23,1-.35a14.1,14.1,0,0,0,2.43-1.21,5.87,5.87,0,0,0,.68-.48l4.15,1.27,20.71,6.3-.92,3L90.08,99.77Z"/><path d="M26.83,80.51l.91-3L51,84.59,55.67,86l-1.08.29a20.22,20.22,0,0,0-3.09,1.17,7.24,7.24,0,0,0-.68.35l-3.3-1Z"/><path d="M81.71,99.26,82.8,99a23.93,23.93,0,0,0,2.49-.71c.35-.11.68-.23,1-.35l3.8,1.81L106,107.36l-1.36,2.84L86,101.31Z"/><path d="M35.11,77l1.35-2.84L55.05,83l4.62,2.2c-.43.06-.85.12-1.26.2-1,.16-1.88.35-2.74.57l-1.08.29L51,84.59Z"/><path d="M78.45,99.78l1-.13c.77-.12,1.51-.24,2.22-.39L82.8,99l3.2,2.29,11.73,8.39-1.83,2.56-14.11-10.1Z"/><path d="M43.34,74.66l1.83-2.56L59.28,82.2l3.77,2.69c-.41,0-.82.06-1.21.1-.75.07-1.47.15-2.17.25-.43.06-.85.12-1.26.2L55.05,83Z"/><path d="M61.84,85,51.21,73.36l2.33-2.12L65.89,84.76c-.72,0-1.43,0-2.12.08l-.72,0C62.64,84.91,62.23,85,61.84,85Z"/><path d="M87.54,113.12,75.59,100c.67,0,1.33-.09,2-.16l.9-.1,1-.13L89.86,111Z"/><path d="M153.86,37h26.51v3H157.11V58.17h21.67v3H157.11V80.31h23.12v3.11H153.86Z"/><path d="M186.13,50.29h3.19v5.83c1.72-4,6.42-6.56,11.92-6.56v3c-7.15,0-11.92,3.51-11.92,8.48V83.42h-3.19Z"/><path d="M226.16,75.87H226c-2.19,5-6.69,8.08-13.52,8.08s-11.13-3.77-11.13-10c0-6.83,6.23-11.07,16.23-11.07h8.15v-.07c0-6.29-4-10.27-9.74-10.27-6.23,0-9.81,3.51-10.2,9.15h-3.25c.53-7.49,5.3-12.06,13.45-12.06,7.56,0,12.86,5,12.86,13V83.42h-2.19ZM213,81c8.08,0,12.72-4.64,12.72-12.79V65.66h-8.08c-8,0-13.06,3.25-13.06,8.29C204.62,78.25,207.87,81,213,81Z"/><path d="M239.22,90.58h12.46c4.24,0,6.76-2.52,6.76-6.83l.06-4.7.4-3.38-.4-.13-1.32,3.18A12.33,12.33,0,0,1,246.57,84c-9,0-14.38-6.49-14.38-17.23s5.37-17.23,14.38-17.23a12.22,12.22,0,0,1,10.54,5.17l1.33,3.25.39-.13-.39-3.45v-4h3.18V83.36c0,6.49-3.78,10.27-10.27,10.27H239.22ZM246.77,81c7.36,0,11.67-5.3,11.67-14.25s-4.31-14.24-11.67-14.24c-7.09,0-11.33,5.3-11.33,14.24S239.68,81,246.77,81Z"/><path d="M265.6,66.72c-.07-10.6,5.76-17.23,15.17-17.23S296,56.12,296,66.72,290.18,84,280.77,84,265.53,77.33,265.6,66.72ZM280.77,81c7.36,0,12.06-5.5,12.06-14.25s-4.7-14.31-12.06-14.31-12,5.57-12,14.31S273.42,81,280.77,81Z"/><path d="M315.7,52.67a13.12,13.12,0,0,0-12.59,10.87V83.42h-3.18V50.29h3.18L303,55.46l-.4,3.18.4.13,1.46-2.85a13.88,13.88,0,0,1,11.6-6.29c7.22,0,11.73,5.16,11.73,13.32V83.42h-3.12V62.61C324.71,56.45,321.4,52.67,315.7,52.67Z"/><path d="M156.71,140.17,155.38,137l-.4.06.4,3.45v15.84H152.2V111.67h3.18l-.06,4.11-.4,3.45.4.06,1.32-3.18a12.49,12.49,0,0,1,10.74-5.23c8.94,0,14.31,6.49,14.24,17.23s-5.3,17.23-14.24,17.23C162.74,145.34,159.09,143.55,156.71,140.17Zm10.34,2.19c7.09,0,11.33-5.31,11.33-14.25s-4.24-14.25-11.33-14.25c-7.29,0-11.67,5.3-11.67,14.25S159.76,142.36,167.05,142.36Z"/><path d="M185.07,137.05v-40h3.18v39.77c0,3.11,1.59,5,4.31,5h2.26v3h-2.59C187.66,144.81,185.07,142,185.07,137.05Z"/><path d="M221.59,137.25h-.13c-2.19,5-6.7,8.09-13.52,8.09s-11.13-3.78-11.13-10c0-6.82,6.22-11.07,16.23-11.07h8.15v-.06c0-6.3-4-10.27-9.74-10.27-6.23,0-9.81,3.51-10.21,9.14H198c.53-7.49,5.3-12.06,13.45-12.06,7.56,0,12.86,5,12.86,13v20.81h-2.19Zm-13.12,5.11c8.08,0,12.72-4.64,12.72-12.79v-2.52h-8.08c-8,0-13.06,3.24-13.06,8.28C200.05,139.64,203.3,142.36,208.47,142.36Z"/><path d="M232.13,136.79V114.66h-5.7v-3h3.38a2.15,2.15,0,0,0,2.32-2.32v-6.29h3.18v8.61h8.09v3h-8.09v21.93c0,3.25,1.72,5.24,4.71,5.24h3.38v3h-3.65C234.91,144.81,232.13,141.83,232.13,136.79Z"/><path d="M250.49,114.66h-5.7v-3h3.11a2.32,2.32,0,0,0,2.65-2.65v-2.65c0-6.09,3.18-9.28,9.15-9.28h2v3h-1.92c-4.11,0-6.1,2.12-6.1,6.49v5.1h8.08v3h-8.08v30.15h-3.18Z"/><path d="M261.89,128.11c-.07-10.61,5.76-17.23,15.17-17.23s15.24,6.62,15.18,17.23-5.77,17.23-15.18,17.23S261.82,138.71,261.89,128.11Zm15.17,14.25c7.36,0,12.06-5.5,12.06-14.25s-4.7-14.32-12.06-14.32-12,5.57-12,14.32S269.71,142.36,277.06,142.36Z"/><path d="M296.22,111.67h3.18v5.83c1.72-4,6.43-6.56,11.93-6.56v3c-7.16,0-11.93,3.51-11.93,8.48v22.34h-3.18Z"/><path d="M314.77,111.67H318l-.06,4.64-.4,3.12.4.13,1.46-2.85a11.1,11.1,0,0,1,9.54-5.7c6,0,9.87,3.25,11,9,1.59-5.56,5.63-9,11.4-9,6.82,0,10.67,4.64,10.67,12.79v21h-3.12V123.6c0-6.1-2.85-9.54-8.08-9.54-5.9,0-9.55,4.11-10.54,10.67v20.08H337V123.6c0-6.1-3.05-9.61-8.75-9.61-5.37,0-9,4.51-10.34,11.47v19.35h-3.18Z"/><path d="M365.28,133.81l3.11-.2c.4,5.83,4.11,8.75,11.27,8.75,6.42,0,10.14-2.59,10.14-7.1,0-4.24-3.91-5.43-11.47-6.82-8.15-1.39-12.06-3.58-12.06-8.68s4.37-8.88,12.46-8.88,12.59,3.71,13.58,10.67l-3.18.2c-.53-5.31-4.11-8-10.6-8-5.9,0-9.08,2.32-9.08,5.9s3,4.77,10.34,6c8.61,1.53,13,3.58,13,9.54,0,6.17-4.57,10-13.45,10S365.74,141.36,365.28,133.81Z"/></g></g></svg>