<svg xmlns="http://www.w3.org/2000/svg" version="1.1" xmlns:xlink="http://www.w3.org/1999/xlink" xmlns:svgjs="http://svgjs.dev/svgjs" width="1440" height="560" preserveAspectRatio="none" viewBox="0 0 1440 560"><g mask="url(&quot;#SvgjsMask1012&quot;)" fill="none"><rect width="1440" height="560" x="0" y="0" fill="#0e2a47"></rect><path d="M562 513L950 901" stroke-width="6" stroke="url(&quot;#SvgjsLinearGradient1013&quot;)" stroke-linecap="round" class="BottomRight"></path><path d="M822 462L1196 836" stroke-width="6" stroke="url(&quot;#SvgjsLinearGradient1013&quot;)" stroke-linecap="round" class="BottomRight"></path><path d="M1230 206L1478 454" stroke-width="6" stroke="url(&quot;#SvgjsLinearGradient1014&quot;)" stroke-linecap="round" class="TopLeft"></path><path d="M45 468L298 721" stroke-width="10" stroke="url(&quot;#SvgjsLinearGradient1014&quot;)" stroke-linecap="round" class="TopLeft"></path><path d="M918 95L1063 240" stroke-width="8" stroke="url(&quot;#SvgjsLinearGradient1013&quot;)" stroke-linecap="round" class="BottomRight"></path><path d="M265 417L537 689" stroke-width="6" stroke="url(&quot;#SvgjsLinearGradient1013&quot;)" stroke-linecap="round" class="BottomRight"></path><path d="M794 395L1116 717" stroke-width="10" stroke="url(&quot;#SvgjsLinearGradient1014&quot;)" stroke-linecap="round" class="TopLeft"></path><path d="M555 313L796 554" stroke-width="8" stroke="url(&quot;#SvgjsLinearGradient1013&quot;)" stroke-linecap="round" class="BottomRight"></path><path d="M1038 195L736 -107" stroke-width="8" stroke="url(&quot;#SvgjsLinearGradient1013&quot;)" stroke-linecap="round" class="BottomRight"></path><path d="M1394 398L1013 17" stroke-width="6" stroke="url(&quot;#SvgjsLinearGradient1014&quot;)" stroke-linecap="round" class="TopLeft"></path><path d="M377 399L778 800" stroke-width="8" stroke="url(&quot;#SvgjsLinearGradient1014&quot;)" stroke-linecap="round" class="TopLeft"></path><path d="M1002 278L765 41" stroke-width="6" stroke="url(&quot;#SvgjsLinearGradient1014&quot;)" stroke-linecap="round" class="TopLeft"></path><path d="M721 218L1011 508" stroke-width="8" stroke="url(&quot;#SvgjsLinearGradient1014&quot;)" stroke-linecap="round" class="TopLeft"></path><path d="M841 357L1075 591" stroke-width="10" stroke="url(&quot;#SvgjsLinearGradient1014&quot;)" stroke-linecap="round" class="TopLeft"></path><path d="M1301 319L1585 603" stroke-width="8" stroke="url(&quot;#SvgjsLinearGradient1014&quot;)" stroke-linecap="round" class="TopLeft"></path><path d="M421 63L111 -247" stroke-width="10" stroke="url(&quot;#SvgjsLinearGradient1014&quot;)" stroke-linecap="round" class="TopLeft"></path><path d="M1068 366L1324 622" stroke-width="8" stroke="url(&quot;#SvgjsLinearGradient1014&quot;)" stroke-linecap="round" class="TopLeft"></path><path d="M1153 310L1540 697" stroke-width="6" stroke="url(&quot;#SvgjsLinearGradient1014&quot;)" stroke-linecap="round" class="TopLeft"></path><path d="M940 539L702 301" stroke-width="8" stroke="url(&quot;#SvgjsLinearGradient1014&quot;)" stroke-linecap="round" class="TopLeft"></path><path d="M289 232L463 406" stroke-width="8" stroke="url(&quot;#SvgjsLinearGradient1013&quot;)" stroke-linecap="round" class="BottomRight"></path><path d="M125 188L473 536" stroke-width="10" stroke="url(&quot;#SvgjsLinearGradient1013&quot;)" stroke-linecap="round" class="BottomRight"></path><path d="M431 417L603 589" stroke-width="10" stroke="url(&quot;#SvgjsLinearGradient1014&quot;)" stroke-linecap="round" class="TopLeft"></path><path d="M98 371L-287 -14" stroke-width="8" stroke="url(&quot;#SvgjsLinearGradient1013&quot;)" stroke-linecap="round" class="BottomRight"></path><path d="M283 204L-28 -107" stroke-width="10" stroke="url(&quot;#SvgjsLinearGradient1014&quot;)" stroke-linecap="round" class="TopLeft"></path><path d="M886 437L617 168" stroke-width="10" stroke="url(&quot;#SvgjsLinearGradient1013&quot;)" stroke-linecap="round" class="BottomRight"></path><path d="M1248 143L1539 434" stroke-width="6" stroke="url(&quot;#SvgjsLinearGradient1014&quot;)" stroke-linecap="round" class="TopLeft"></path><path d="M797 511L619 333" stroke-width="6" stroke="url(&quot;#SvgjsLinearGradient1014&quot;)" stroke-linecap="round" class="TopLeft"></path><path d="M380 523L580 723" stroke-width="8" stroke="url(&quot;#SvgjsLinearGradient1013&quot;)" stroke-linecap="round" class="BottomRight"></path><path d="M400 494L148 242" stroke-width="10" stroke="url(&quot;#SvgjsLinearGradient1014&quot;)" stroke-linecap="round" class="TopLeft"></path><path d="M613 26L425 -162" stroke-width="10" stroke="url(&quot;#SvgjsLinearGradient1013&quot;)" stroke-linecap="round" class="BottomRight"></path><path d="M282 68L564 350" stroke-width="6" stroke="url(&quot;#SvgjsLinearGradient1014&quot;)" stroke-linecap="round" class="TopLeft"></path><path d="M103 140L-148 -111" stroke-width="10" stroke="url(&quot;#SvgjsLinearGradient1014&quot;)" stroke-linecap="round" class="TopLeft"></path><path d="M1130 421L893 184" stroke-width="8" stroke="url(&quot;#SvgjsLinearGradient1013&quot;)" stroke-linecap="round" class="BottomRight"></path><path d="M153 136L-202 -219" stroke-width="8" stroke="url(&quot;#SvgjsLinearGradient1014&quot;)" stroke-linecap="round" class="TopLeft"></path><path d="M984 275L1124 415" stroke-width="10" stroke="url(&quot;#SvgjsLinearGradient1013&quot;)" stroke-linecap="round" class="BottomRight"></path><path d="M1437 69L1696 328" stroke-width="10" stroke="url(&quot;#SvgjsLinearGradient1014&quot;)" stroke-linecap="round" class="TopLeft"></path><path d="M129 381L-216 36" stroke-width="8" stroke="url(&quot;#SvgjsLinearGradient1013&quot;)" stroke-linecap="round" class="BottomRight"></path><path d="M792 484L1060 752" stroke-width="10" stroke="url(&quot;#SvgjsLinearGradient1014&quot;)" stroke-linecap="round" class="TopLeft"></path><path d="M1119 8L1466 355" stroke-width="10" stroke="url(&quot;#SvgjsLinearGradient1014&quot;)" stroke-linecap="round" class="TopLeft"></path></g><defs><mask id="SvgjsMask1012"><rect width="1440" height="560" fill="#ffffff"></rect></mask><linearGradient x1="0%" y1="0%" x2="100%" y2="100%" id="SvgjsLinearGradient1013"><stop stop-color="rgba(28, 83, 142, 0)" offset="0"></stop><stop stop-color="#1c538e" offset="1"></stop></linearGradient><linearGradient x1="100%" y1="100%" x2="0%" y2="0%" id="SvgjsLinearGradient1014"><stop stop-color="rgba(28, 83, 142, 0)" offset="0"></stop><stop stop-color="#1c538e" offset="1"></stop></linearGradient></defs></svg>