<svg xmlns="http://www.w3.org/2000/svg" version="1.1" xmlns:xlink="http://www.w3.org/1999/xlink" xmlns:svgjs="http://svgjs.dev/svgjs" width="1440" height="560" preserveAspectRatio="none" viewBox="0 0 1440 560"><g mask="url(&quot;#SvgjsMask1009&quot;)" fill="none"><rect width="1440" height="560" x="0" y="0" fill="#0e2a47"></rect><path d="M26.307975687166028-72.61028696969889L-62.718460704012394 69.86179318458066 79.75361945026717 158.88822957575906 168.78005584144557 16.41614942147953z" fill="rgba(28, 83, 142, 0.4)" class="triangle-float3"></path><path d="M38.191160431522505-35.61853712178198L-21.371465466999958 147.10366926590305 143.54190135220756 115.04775804264357z" fill="rgba(28, 83, 142, 0.4)" class="triangle-float2"></path><path d="M157.11270781167764-28.843635832114817L-10.248001467735605-43.4858006137214-24.8901662493422 123.87490866569183 142.47054303007104 138.51707344729843z" fill="rgba(28, 83, 142, 0.4)" class="triangle-float2"></path><path d="M1292.0846097188605 39.7928367510865L1441.325148975998 160.88112088027015 1470.4980428240422-4.566581625780827z" fill="rgba(28, 83, 142, 0.4)" class="triangle-float2"></path><path d="M1445.613256524617-23.427297003741796L1337.9519465795252-54.29868085524569 1345.4755257748152 122.62897598814385z" fill="rgba(28, 83, 142, 0.4)" class="triangle-float3"></path><path d="M1404.558992863542-42.39825558070482L1294.2605245261748-22.949659682008615 1378.5826525429027 132.77374487469422z" fill="rgba(28, 83, 142, 0.4)" class="triangle-float2"></path><path d="M90.385,634.075C127.417,632.516,164.987,624.135,185.874,593.516C209.618,558.708,219.975,512.207,198.074,476.211C176.764,441.187,131.373,435.729,90.385,436.573C51.284,437.378,11.822,447.963,-9.886,480.494C-34.104,516.788,-43.982,565.655,-20.129,602.19C2.336,636.599,49.328,635.804,90.385,634.075" fill="rgba(28, 83, 142, 0.4)" class="triangle-float3"></path><path d="M123.98155752979068 617.140311375062L164.6244359905348 454.13062936069457 1.6147539761674068 413.48775089995047-39.02812448457672 576.4974329143179z" fill="rgba(28, 83, 142, 0.4)" class="triangle-float1"></path><path d="M152.533763547349 413.98080917045115L-15.363895391859103 408.11769372443104-21.22701083787922 576.0153526636391 146.67064810132888 581.8784681096593z" fill="rgba(28, 83, 142, 0.4)" class="triangle-float3"></path><path d="M1412.779,620.732C1451.077,621.537,1496.069,625.078,1516.215,592.498C1536.917,559.019,1518.012,517.458,1497.364,483.945C1478.002,452.52,1449.63,426.726,1412.779,424.618C1372.097,422.29,1330.228,438.067,1309.586,473.201C1288.717,508.722,1293,554.542,1316.613,588.301C1337.395,618.012,1376.529,619.97,1412.779,620.732" fill="rgba(28, 83, 142, 0.4)" class="triangle-float3"></path><path d="M1383.409,587.385C1411.712,588.103,1433.521,565.022,1447.032,540.142C1459.842,516.552,1463.219,488.328,1449.839,465.056C1436.42,441.716,1410.325,430.071,1383.409,429.48C1355.291,428.863,1325.122,437.294,1311.727,462.024C1298.759,485.966,1311.63,513.41,1325.146,537.048C1338.8,560.928,1355.91,586.687,1383.409,587.385" fill="rgba(28, 83, 142, 0.4)" class="triangle-float1"></path><path d="M1287.4662364526507 594.0191908295488L1455.363895391859 599.882306275569 1461.227010837879 431.9846473363609 1293.329351898671 426.12153189034075z" fill="rgba(28, 83, 142, 0.4)" class="triangle-float3"></path></g><defs><mask id="SvgjsMask1009"><rect width="1440" height="560" fill="#ffffff"></rect></mask><style>
                @keyframes float1 {
                    0%{transform: translate(0, 0)}
                    50%{transform: translate(-10px, 0)}
                    100%{transform: translate(0, 0)}
                }

                .triangle-float1 {
                    animation: float1 5s infinite;
                }

                @keyframes float2 {
                    0%{transform: translate(0, 0)}
                    50%{transform: translate(-5px, -5px)}
                    100%{transform: translate(0, 0)}
                }

                .triangle-float2 {
                    animation: float2 4s infinite;
                }

                @keyframes float3 {
                    0%{transform: translate(0, 0)}
                    50%{transform: translate(0, -10px)}
                    100%{transform: translate(0, 0)}
                }

                .triangle-float3 {
                    animation: float3 6s infinite;
                }
            </style></defs></svg>