<svg width="309" height="130" viewBox="0 0 309 130" fill="none" xmlns="http://www.w3.org/2000/svg">
<path d="M64.7732 129.102C100.546 129.102 129.546 100.224 129.546 64.6016C129.546 28.9792 100.546 0.101562 64.7732 0.101562C28.9999 0.101562 0 28.9792 0 64.6016C0 100.224 28.9999 129.102 64.7732 129.102Z" fill="#CF1618"/>
<path d="M104.327 92.0926H90.2578L86.2759 82.5762L77.2501 62.486L64.2424 92.0926H50.4382L77.2501 36.5803L80.9666 43.7176L104.327 92.0926Z" fill="white"/>
<path d="M44.3323 36.8453H30.2627V92.0932H44.3323V36.8453Z" fill="white"/>
<path d="M177.064 81.521L175.737 78.3488L175.206 81.521L173.082 91.8304H169.897L174.41 69.8898H174.675L180.781 81.7853L182.639 85.7505L184.497 81.7853L190.338 69.8898H190.603L195.381 91.8304H192.196L190.072 81.521L189.541 78.3488L188.214 81.521L182.905 91.8304H182.639L177.064 81.521Z" fill="black"/>
<path d="M201.487 69.8899H206.265C208.92 69.8899 211.043 70.4186 212.371 71.7403C213.698 72.7977 214.229 74.3837 214.229 76.4985C214.229 78.8776 213.433 80.728 212.105 81.7854C210.778 83.1071 208.654 83.6358 206 83.6358H204.938V91.8305H201.487V69.8899ZM206 80.728C207.858 80.728 208.92 80.4637 209.716 79.6706C210.512 78.8776 210.778 78.0846 210.778 76.7628C210.778 75.7055 210.512 74.6481 209.716 73.8551C208.92 73.062 207.858 72.7977 206.265 72.7977H204.672V80.728H206Z" fill="black"/>
<path d="M220.335 69.8899H223.786V88.9227H230.157V91.8305H220.335V69.8899Z" fill="black"/>
<path d="M236.529 69.8899H239.98V91.8305H236.529V69.8899Z" fill="black"/>
<path d="M247.943 69.8899H258.296V72.7977H251.394V79.1419H256.969V82.0497H251.394V91.8305H247.943V69.8899Z" fill="black"/>
<path d="M265.464 69.8899H268.915V91.8305H265.464V69.8899Z" fill="black"/>
<path d="M276.879 69.8899H286.435V72.7977H280.064V78.8776H285.108V81.7854H280.064V88.9227H287.497V91.8305H276.879V69.8899Z" fill="black"/>
<path d="M305.018 91.8305L300.505 83.6358C299.709 83.6358 298.647 83.6358 298.116 83.6358H297.32V91.8305H294.134V69.8899H299.178C301.832 69.8899 303.691 70.4186 305.549 71.4759C307.142 72.5333 307.938 74.1194 307.938 76.4985C307.938 78.0846 307.673 79.1419 306.876 80.1993C306.08 81.2567 305.283 82.0497 303.691 82.5784L309 91.5661H305.018V91.8305ZM299.443 80.728C301.302 80.728 302.629 80.1993 303.425 79.4063C304.222 78.6132 304.487 77.5559 304.487 76.4985C304.487 73.8551 302.629 72.5333 299.178 72.5333H297.32V80.728H299.443Z" fill="black"/>
<path d="M165.915 92.0947H160.606L159.013 88.1295L155.296 80.1992L150.252 92.0947H144.678L155.296 69.8898L156.889 72.7976L165.915 92.0947Z" fill="#CF1618"/>
<path d="M172.02 48.7421L170.693 45.5699L170.162 48.7421L168.038 59.0515H164.587L169.1 37.1109H169.366L175.471 49.0064L177.33 52.9716L179.188 49.0064L185.028 37.1109H185.294L190.072 59.0515H186.886L184.763 48.7421L184.232 45.5699L182.904 48.7421L177.595 59.0515H177.33L172.02 48.7421Z" fill="black"/>
<path d="M196.177 36.8465H200.956C203.61 36.8465 205.734 37.3752 207.061 38.6969C208.389 39.7543 208.92 41.3403 208.92 43.4551C208.92 45.8342 208.123 47.6846 206.796 48.742C205.469 50.0637 203.345 50.5924 200.69 50.5924H199.628V58.787H196.177V36.8465ZM200.956 47.6846C202.814 47.6846 203.876 47.4202 204.672 46.6272C205.469 45.8342 205.734 45.0411 205.734 43.7194C205.734 42.662 205.469 41.6047 204.672 40.8116C203.876 40.0186 202.814 39.7543 201.221 39.7543H199.628V47.6846H200.956Z" fill="black"/>
<path d="M223.255 36.8465L233.873 58.787H229.891L228.033 54.5575H217.946L216.087 58.787H212.371L222.989 36.8465H223.255ZM221.662 46.3629L219.273 51.6497H226.706L224.317 46.3629L222.989 43.1907L221.662 46.3629Z" fill="black"/>
<path d="M242.9 57.4653C241.307 56.4079 239.98 55.0862 239.183 53.5002C238.387 51.9141 237.856 49.7993 237.856 47.9489C237.856 45.8342 238.387 43.7194 239.183 42.1334C240.245 40.5473 241.572 38.9612 243.165 38.1682C244.758 37.1108 246.882 36.8465 249.005 36.8465C250.067 36.8465 250.864 36.8465 251.66 37.1108C252.456 37.3752 253.253 37.6395 253.784 37.9038C254.315 38.1682 254.846 38.4325 254.846 38.6969L253.253 41.6047C251.925 40.5473 250.333 40.0186 248.474 40.0186C247.147 40.0186 245.82 40.2829 244.758 41.076C243.696 41.869 242.634 42.662 242.103 43.9838C241.572 45.3055 241.041 46.6272 241.041 48.4776C241.041 50.0637 241.307 51.3854 241.838 52.7071C242.369 54.0288 243.165 54.8219 244.227 55.6149C245.289 56.4079 246.616 56.6723 248.209 56.6723C250.067 56.6723 251.66 56.1436 253.253 55.0862L254.846 57.4653C254.315 57.994 253.518 58.2584 252.456 58.5227C251.394 58.787 250.067 59.0514 249.005 59.0514C246.351 59.0514 244.492 58.5227 242.9 57.4653Z" fill="black"/>
<path d="M265.464 39.7543H259.889V36.8465H274.489V39.7543H268.915V58.787H265.464V39.7543Z" fill="black"/>
<path d="M157.951 36.8465H152.111V59.0514H157.951V36.8465Z" fill="#CF1618"/>
</svg>
