<svg width="383" height="140" viewBox="0 0 383 140" fill="none" xmlns="http://www.w3.org/2000/svg">
<g clip-path="url(#clip0_5452_2164)">
<path d="M34.2892 12.51C2.80923 30.05 -5.74078 54.19 3.53922 86.93C14.0792 124.08 38.5792 139.5 70.4092 139.5C80.0492 139.51 89.5892 137.48 98.3792 133.52C121.929 122.89 135.419 99.21 138.669 68.88C142.849 29.71 101.309 -24.87 34.2892 12.51ZM83.0292 84.5C85.5692 85.83 88.3692 86.56 91.2392 86.64C94.0992 86.72 96.9492 86.15 99.5592 84.97C100.949 84.38 102.439 83.59 103.709 84.35C104.419 84.83 104.959 85.52 105.259 86.33L108.599 93.04C108.899 93.5 109.019 94.05 108.929 94.59C108.749 95.03 108.429 95.39 108.019 95.63C102.839 99.32 96.4192 100.86 90.1192 99.95C83.8192 99.04 78.1092 95.74 74.1892 90.74C75.5792 94.15 76.8392 97.2 76.2792 100.96C76.0492 102.73 75.3992 104.43 74.3992 105.91C73.3892 107.39 72.0592 108.62 70.4992 109.5C68.9492 110.24 67.2492 110.59 65.5392 110.53C63.8292 110.47 62.1592 110 60.6692 109.16C58.9592 108.08 57.6192 106.51 56.7992 104.66C55.9892 102.81 55.7492 100.76 56.1092 98.77C56.3992 97.43 56.9692 96.17 57.7892 95.07C58.4592 94.44 59.0392 93.73 59.5292 92.96C59.8992 92.24 60.1692 91.47 60.3492 90.68C60.5592 89.86 60.7192 89.02 60.8192 88.18C61.0292 86.44 61.1092 84.68 61.0692 82.93C60.9992 79.41 60.3992 75.94 60.4492 72.41C60.4492 67.23 61.1792 62.06 60.9092 56.88C60.7892 54.52 60.4592 52.17 59.8992 49.88C59.7492 49.23 58.2792 43.46 57.6692 43.5L65.0492 43.07L59.0392 42.48C58.4792 42.46 57.9392 42.32 57.4492 42.06C57.0992 41.79 56.8092 41.44 56.5992 41.05C56.3992 40.66 56.2792 40.23 56.2492 39.78C55.9292 37.33 56.5292 34.84 57.9292 32.81C59.3392 30.77 61.4592 29.33 63.8692 28.76C66.2792 28.19 68.8192 28.54 70.9992 29.73C73.1692 30.92 74.8292 32.88 75.6392 35.21C75.9892 36.23 75.9592 37.67 74.9292 37.97C74.5292 38.08 74.0992 38.08 73.6992 37.97L66.9992 36.59C69.8392 37.18 72.5792 38.19 75.1292 39.57C75.5992 39.77 75.9892 40.11 76.2492 40.55C76.4092 41.06 76.4092 41.6 76.2492 42.11C75.6492 45.19 75.0392 48.26 74.4492 51.34C76.1792 48.79 78.4292 46.64 81.0592 45.02C83.6892 43.4 86.6292 42.36 89.6892 41.96C95.8692 41.23 102.119 42.54 107.489 45.69C107.809 45.78 108.099 45.94 108.329 46.17C108.559 46.4 108.739 46.68 108.839 46.99C108.939 47.3 108.949 47.63 108.889 47.96C108.829 48.28 108.679 48.58 108.469 48.83L104.919 55.93C104.639 56.63 104.159 57.23 103.529 57.66C102.409 58.3 101.019 57.66 99.8592 57.09C97.2992 55.88 94.5092 55.25 91.6792 55.25C88.8492 55.25 86.0592 55.88 83.4992 57.09C80.8792 58.27 78.6492 60.17 77.0592 62.55C75.4692 64.94 74.5992 67.73 74.5292 70.6C74.4692 73.46 75.2192 76.29 76.6992 78.75C78.1792 81.21 80.3192 83.2 82.8892 84.49L83.0292 84.5Z" fill="#F37021"/>
<path d="M213.199 50.0201L205.799 49.4001H205.589C204.899 49.4001 204.239 49.6501 203.719 50.1101C203.209 50.5701 202.879 51.2001 202.819 51.8901C202.779 52.4301 202.579 52.9601 202.239 53.3901C201.899 53.8201 201.439 54.1401 200.919 54.3101C200.399 54.4801 199.839 54.5001 199.309 54.3501C198.779 54.2001 198.309 53.9101 197.949 53.4901C196.669 52.1901 195.239 51.0401 193.679 50.0801C189.899 47.6901 185.589 46.2701 181.129 45.9401C171.629 45.1601 163.509 47.4601 156.769 52.8501C150.029 58.2401 146.219 66.0901 145.339 76.4001C144.419 86.9801 146.789 95.5001 152.459 101.95C158.129 108.41 165.739 111.98 175.289 112.68C179.729 113.02 184.179 112.32 188.299 110.64C190.199 109.91 191.979 108.92 193.599 107.7C194.019 107.35 194.529 107.14 195.059 107.07C195.589 107 196.139 107.11 196.629 107.35C197.109 107.6 197.519 107.97 197.779 108.44C198.049 108.91 198.179 109.45 198.139 109.99V110.24C198.109 110.97 198.359 111.67 198.849 112.21C199.339 112.75 200.019 113.07 200.739 113.12L207.939 113.71C208.309 113.75 208.689 113.71 209.049 113.6C209.409 113.49 209.739 113.31 210.029 113.07C210.319 112.83 210.549 112.53 210.719 112.2C210.889 111.86 210.989 111.5 211.009 111.13L215.869 53.1201C215.899 52.7401 215.859 52.3601 215.739 52.0001C215.619 51.6401 215.429 51.3001 215.179 51.0201C214.929 50.7301 214.619 50.5001 214.279 50.3301C213.959 50.1401 213.579 50.0401 213.199 50.0201ZM199.199 85.4501C198.249 88.2801 196.879 90.9401 195.139 93.3601C193.289 95.8401 190.789 97.7501 187.909 98.8801C184.629 100.22 181.069 100.73 177.549 100.37C174.819 100.21 172.149 99.5101 169.699 98.3001C167.249 97.0901 165.069 95.4001 163.289 93.3301C161.449 91.1501 160.089 88.6201 159.289 85.8901C158.489 83.1601 158.259 80.3001 158.619 77.4701C159.149 71.1001 161.559 66.1701 165.849 62.6801C167.959 60.9501 170.389 59.6601 173.009 58.8801C175.619 58.1001 178.369 57.8601 181.079 58.1601C184.609 58.3901 188.039 59.4801 191.049 61.3201C193.699 62.9101 195.859 65.2001 197.269 67.9501C198.589 70.6401 199.499 73.5201 199.939 76.4801C200.429 79.5001 200.179 82.5701 199.199 85.4501Z" fill="#6D8B3A"/>
<path d="M334.22 67.3201C331.15 59.0301 325.15 52.8901 316.21 48.8801C307.27 44.8701 298.72 44.5201 290.57 47.8301C282.43 51.1101 276.39 57.1201 272.47 65.8701C268.55 74.6201 268.08 83.0801 271.08 91.2701C274.05 99.4501 280.05 105.54 289.09 109.56C298.13 113.57 306.74 113.98 314.94 110.77C323.07 107.54 329.1 101.55 333.02 92.8101C334.92 88.8601 336.01 84.5601 336.22 80.1901C336.42 75.8101 335.74 71.4301 334.22 67.3201ZM320.65 87.3001C318.58 92.3201 314.66 96.3601 309.69 98.5801C307.21 99.5501 304.57 100.01 301.91 99.9501C299.25 99.8901 296.63 99.3001 294.2 98.2301C291.77 97.1501 289.57 95.6101 287.75 93.6801C285.92 91.7501 284.49 89.4901 283.55 87.0101C281.94 81.8301 282.35 76.2401 284.71 71.3601C286.81 66.3101 290.74 62.2301 295.72 59.9401C298.17 58.9201 300.81 58.4201 303.47 58.4601C306.13 58.5001 308.75 59.0801 311.17 60.1701C313.6 61.2601 315.77 62.8301 317.57 64.7901C319.37 66.7501 320.74 69.0501 321.61 71.5501C323.32 76.7301 322.98 82.3701 320.65 87.3001Z" fill="#6D8B3A"/>
<path d="M381.869 105.99L380.859 103.04C380.479 101.97 379.699 101.08 378.679 100.57C377.659 100.06 376.479 99.9498 375.389 100.28C374.039 100.68 372.639 100.89 371.239 100.92C365.089 100.92 362.009 97.4198 362.009 90.4198V64.3598C362.009 63.7798 362.119 63.2098 362.339 62.6698C362.559 62.1298 362.879 61.6498 363.299 61.2398C363.709 60.8298 364.199 60.4998 364.739 60.2798C365.279 60.0598 365.849 59.9398 366.439 59.9398H376.429C377.009 59.9398 377.579 59.8298 378.119 59.6098C378.659 59.3898 379.139 59.0598 379.559 58.6498C379.969 58.2398 380.289 57.7498 380.509 57.2198C380.729 56.6798 380.839 56.1098 380.839 55.5298V52.8398C380.839 52.2598 380.729 51.6898 380.509 51.1498C380.289 50.6098 379.959 50.1298 379.559 49.7198C379.149 49.3098 378.659 48.9798 378.119 48.7598C377.579 48.5398 377.009 48.4198 376.429 48.4198H366.579C365.999 48.4198 365.419 48.3098 364.879 48.0898C364.339 47.8698 363.849 47.5398 363.439 47.1398C363.029 46.7298 362.699 46.2398 362.479 45.7098C362.259 45.1798 362.139 44.5998 362.139 44.0198V34.8098C362.139 34.1898 362.009 33.5798 361.749 33.0198C361.499 32.4598 361.129 31.9498 360.669 31.5398C360.209 31.1298 359.659 30.8098 359.079 30.6298C358.489 30.4398 357.869 30.3798 357.249 30.4398L352.599 30.9198C351.509 31.0398 350.509 31.5498 349.769 32.3598C349.039 33.1698 348.639 34.2198 348.639 35.3098V43.9998C348.639 44.5798 348.529 45.1498 348.299 45.6898C348.079 46.2298 347.749 46.7098 347.339 47.1198C346.929 47.5298 346.439 47.8498 345.899 48.0698C345.359 48.2898 344.789 48.3998 344.199 48.3998H340.709C340.129 48.3998 339.559 48.5198 339.009 48.7398C338.469 48.9598 337.989 49.2898 337.579 49.6998C337.169 50.1098 336.849 50.5998 336.629 51.1298C336.409 51.6698 336.299 52.2398 336.299 52.8198V55.5098C336.299 56.0898 336.409 56.6598 336.629 57.1998C336.849 57.7398 337.179 58.2198 337.579 58.6298C337.989 59.0398 338.479 59.3698 339.009 59.5898C339.549 59.8098 340.119 59.9198 340.709 59.9198H344.119C345.289 59.9198 346.419 60.3898 347.249 61.2098C348.079 62.0398 348.549 63.1598 348.549 64.3298V90.3498C348.549 97.8598 350.429 103.54 354.199 107.38C357.969 111.22 363.359 113.06 370.379 112.91C373.299 112.89 376.199 112.46 378.989 111.61C379.559 111.44 380.089 111.15 380.539 110.77C380.999 110.39 381.369 109.92 381.629 109.4C381.899 108.87 382.059 108.29 382.099 107.7C382.139 107.14 382.069 106.55 381.869 105.99Z" fill="#6D8B3A"/>
<path d="M257.76 48.3399C248.92 48.3399 242.64 51.6199 238.92 58.1899V58.0699C239.7 54.6599 240.37 51.2199 240.94 47.7499C240.99 47.5599 240.99 47.3499 240.94 47.1499C240.84 46.9799 240.71 46.8399 240.54 46.7399C239.49 46.0099 238.38 45.3999 237.2 44.9199C236.51 44.6199 235.8 44.3699 235.08 44.1599L234.58 43.9999C234.05 43.8499 233.51 43.7099 232.94 43.5899C232.37 43.4699 231.67 43.3299 231.03 43.2399H231.42C231.93 43.2399 232.43 43.2399 232.94 43.3499C233.57 43.4099 234.19 43.4999 234.8 43.6399C235.91 43.8799 237 44.2199 238.05 44.6599H238.16C238.49 44.7999 238.85 44.8499 239.2 44.7899C239.55 44.7299 239.88 44.5799 240.15 44.3499C240.42 44.1199 240.62 43.8099 240.72 43.4699C240.82 43.1299 240.83 42.7699 240.73 42.4199C240.15 40.2299 238.91 38.2599 237.17 36.7999C236.74 36.4299 236.28 36.0999 235.78 35.8199C235.55 35.6799 235.31 35.5599 235.06 35.4499C234.38 35.1199 233.66 34.8699 232.91 34.6999C231.55 34.3899 230.14 34.3399 228.75 34.5599C226.83 34.8999 225.05 35.8099 223.65 37.1699L223.1 37.6499C221.82 39.0499 220.97 40.7899 220.68 42.6599C220.49 43.7599 220.49 44.8899 220.68 45.9899C220.68 46.0999 220.75 46.2099 220.78 46.3199C220.91 47.0699 221.12 47.7999 221.42 48.4999C221.56 48.9399 221.84 48.9499 222.26 48.8999C223.59 48.7699 224.92 48.7699 226.25 48.8999H226.47C227.59 49.0699 228.7 49.3099 229.79 49.5999C229.82 49.6099 229.85 49.6099 229.89 49.5999L230.08 49.6799H226.35H223.75C223.31 49.6799 222.86 49.7899 222.36 49.7899C221.86 49.7899 222 49.9499 222.13 50.2299C222.19 50.3399 222.24 50.4599 222.27 50.5899C222.99 52.1399 223.59 53.7299 224.18 55.3299C224.62 56.5299 225.02 57.7499 225.43 58.9599C225.48 59.1499 225.51 59.3499 225.51 59.5499V111.66C225.51 111.91 225.56 112.15 225.66 112.38C225.75 112.61 225.89 112.82 226.07 112.99C226.25 113.16 226.46 113.3 226.69 113.4C226.92 113.49 227.17 113.54 227.42 113.54H237C237.25 113.54 237.5 113.5 237.73 113.4C237.96 113.31 238.17 113.17 238.35 112.99C238.53 112.81 238.67 112.61 238.76 112.38C238.86 112.15 238.9 111.91 238.9 111.66V79.0699C238.9 73.4499 240.54 69.1299 243.83 66.1099C246.83 63.5499 250.56 61.9899 254.5 61.6499C258.44 61.3099 262.38 62.2199 265.77 64.2299C265.99 64.3799 266.25 64.4899 266.51 64.5299C266.77 64.5799 267.05 64.5699 267.31 64.4999C267.57 64.4399 267.82 64.3199 268.03 64.1499C268.24 63.9899 268.42 63.7799 268.54 63.5399L272.92 55.1699C273.13 54.7699 273.19 54.3099 273.1 53.8699C273 53.4299 272.75 53.0399 272.4 52.7599C268.16 49.6999 263 48.1499 257.76 48.3399Z" fill="#6D8B3A"/>
</g>
<defs>
<clipPath id="clip0_5452_2164">
<rect width="382.11" height="139.5" fill="white"/>
</clipPath>
</defs>
</svg>
