<svg xmlns="http://www.w3.org/2000/svg" viewBox="0 0 726.54 203.75"><defs><style>.cls-1{fill:#f12e90;}.cls-2{fill:#ffbc00;}</style></defs><g id="Layer_2" data-name="Layer 2"><g id="Layer_1-2" data-name="Layer 1"><path d="M311.19,157a9.75,9.75,0,0,1-19.49,0V125.91c-6.28,8.86-15.31,16-29,16-20,0-39.48-15.79-39.48-44.15v-.32c0-28.36,19.18-44.15,39.48-44.15,13.85,0,23,6.93,29,15V63.72a9.7,9.7,0,0,1,9.67-9.67,9.57,9.57,0,0,1,9.82,9.83ZM242.88,97.39v.32c0,16.44,11.12,27.23,24.49,27.23,13.05,0,24.65-11,24.65-27.23v-.32c0-16.43-11.6-27.23-24.65-27.23C254,70.16,242.88,80.47,242.88,97.39Z"/><path d="M318.76,98v-.32c0-24.33,19.33-44.47,45.44-44.47s45.27,19.82,45.27,44.15v.32c0,24-19.34,44.31-45.6,44.31C337.93,142,318.76,122.2,318.76,98ZM390,98v-.32c0-15-10.79-27.39-26.1-27.39-15.62,0-25.61,12.25-25.61,27.07v.32c0,14.82,10.95,27.23,25.94,27.23C380.15,124.94,390,112.7,390,98Z"/><path d="M460.06,133.16c-2.42,5-5.8,8.54-11.12,8.54h-1c-5.32,0-8.7-3.39-11.12-8.54L408.5,68.23a15.27,15.27,0,0,1-1.13-4.84A9.63,9.63,0,0,1,417,54.05c5.32,0,7.9,3.06,9.67,7.09l21.91,56.39,22.24-56.71c1.44-3.39,4-6.77,9.18-6.77a9.28,9.28,0,0,1,9.5,9.34,12.52,12.52,0,0,1-1.12,4.68Z"/><path d="M487.61,115.6v-.33c0-18.52,14.34-27.39,35.12-27.39a70.18,70.18,0,0,1,22.88,3.55v-2.1c0-12.24-7.41-18.52-21.11-18.52a49.82,49.82,0,0,0-18.85,3.38,12,12,0,0,1-3.06.48,8.15,8.15,0,0,1-2.9-15.79,73.57,73.57,0,0,1,27.39-5c12.73,0,22.07,3.22,28.2,9.5s9.18,15.15,9.18,26.27v41.89a9.29,9.29,0,0,1-9.51,9.34c-5.63,0-9.5-3.86-9.5-8.22v-3.22c-5.8,6.93-14.66,12.41-27.71,12.41C501.78,141.86,487.61,132.84,487.61,115.6Zm58.32-6.13v-5.8a54.1,54.1,0,0,0-19.33-3.38c-12.73,0-20,5.16-20,14.18v.32c0,8.22,7.09,12.89,16.59,12.89C536.1,127.68,545.93,120.43,545.93,109.47Z"/><path d="M573.64,128.16c0-6.28,4.83-11.11,11.44-11.11a11,11,0,0,1,11.28,11.11v1.61a11,11,0,0,1-11.28,11.12c-6.61,0-11.44-4.83-11.44-11.12Z"/><path d="M606.34,32.14c0-5.8,4.84-9.51,11.12-9.51s11.12,3.71,11.12,9.51v1c0,5.8-4.84,9.67-11.12,9.67s-11.12-3.87-11.12-9.67Zm1.45,31.74a9.44,9.44,0,0,1,9.67-9.83,9.57,9.57,0,0,1,9.83,9.83v67.35a9.75,9.75,0,0,1-19.5,0Z"/><path d="M635.83,98v-.32c0-24.33,19.33-44.47,45.43-44.47,26.26,0,45.28,19.82,45.28,44.15v.32c0,24-19.34,44.31-45.6,44.31C655,142,635.83,122.2,635.83,98ZM707,98v-.32c0-15-10.79-27.39-26.1-27.39-15.63,0-25.62,12.25-25.62,27.07v.32c0,14.82,11,27.23,25.94,27.23C697.21,124.94,707,112.7,707,98Z"/><path class="cls-1" d="M0,143.67V61.46A12.89,12.89,0,0,1,6.45,50.29L90.55,1.73a12.87,12.87,0,0,1,12.9,0l84.1,48.56A12.89,12.89,0,0,1,194,61.46v82.21a12.9,12.9,0,0,1-19.35,11.17l-71.2-41.11a12.92,12.92,0,0,0-12.9,0l-71.2,41.11A12.9,12.9,0,0,1,0,143.67Z"/><path class="cls-2" d="M51.31,147.84h.44A13.24,13.24,0,0,1,63.41,155c5.09,9.54,18.12,22.18,33.59,22.18s28.5-12.64,33.58-22.18a13.27,13.27,0,0,1,11.66-7.13h.45a13.09,13.09,0,0,1,11.78,18.9c-9.76,19.29-32.58,37-57.47,37s-47.71-17.73-57.47-37A13.09,13.09,0,0,1,51.31,147.84Z"/></g></g></svg>