<svg xmlns="http://www.w3.org/2000/svg" viewBox="0 0 4339.7 1305.84"><defs><style>.cls-1{font-size:285.76px;font-family:Aeonik-Light, Aeonik;font-weight:300;}.cls-1,.cls-6{fill:#070707;}.cls-2{letter-spacing:0em;}.cls-3{letter-spacing:-0.03em;}.cls-4{letter-spacing:-0.02em;}.cls-5{letter-spacing:0em;}.cls-6{font-size:548.14px;font-family:NouvelR-Bold, NouvelR;font-weight:700;letter-spacing:-0.04em;}.cls-7{letter-spacing:-0.09em;}.cls-8{letter-spacing:-0.04em;}.cls-9{fill:#2013a5;}.cls-10{fill:#4c2ff4;}</style></defs><g id="Layer_2" data-name="Layer 2"><g id="Layer_1-2" data-name="Layer 1"><text class="cls-1" transform="translate(1233.58 1023.92)"><tspan class="cls-2">A</tspan><tspan x="180.88" y="0">frica </tspan><tspan class="cls-3" x="787.52" y="0">L</tspan><tspan class="cls-4" x="917.26" y="0">t</tspan><tspan class="cls-5" x="998.13" y="0">d</tspan></text><text class="cls-6" transform="translate(1210.42 675.76)">Trusted <tspan class="cls-7" x="1943.67" y="0">T</tspan><tspan class="cls-8" x="2234.73" y="0">ech</tspan></text><polygon class="cls-9" points="540.09 935.46 540.09 935.46 540.09 935.46 270.21 779.64 270.05 779.55 270.04 779.55 0.16 623.73 0 623.65 0 311.82 270.05 467.73 540.09 623.65 540.09 623.65 540.25 623.55 809.97 467.82 810.13 467.73 1080.02 311.91 1080.17 311.83 1080.17 623.65 810.13 779.55 810.12 779.55 810.12 779.56 540.09 935.46"/><polygon class="cls-9" points="540.09 1305.84 540.09 1305.84 540.09 1305.83 270.21 1150.02 270.05 1149.93 270.04 1149.93 0.16 994.11 0 994.02 0 682.2 270.05 838.11 540.09 994.02 540.09 994.02 540.25 993.93 809.97 838.2 810.13 838.11 1080.02 682.29 1080.17 682.21 1080.17 994.02 810.13 1149.93 810.12 1149.93 810.12 1149.93 540.09 1305.84"/><polygon class="cls-10" points="540.08 0 540.09 0 540.09 0.01 809.96 155.82 810.13 155.91 810.13 155.91 1080.01 311.73 1080.17 311.82 1080.17 623.64 810.12 467.73 540.09 311.82 540.08 311.82 539.92 311.91 270.2 467.64 270.04 467.73 0.15 623.55 0 623.63 0 311.82 270.04 155.91 270.05 155.91 270.05 155.91 540.08 0"/><polygon class="cls-10" points="540.08 370.38 540.09 370.38 540.09 370.38 809.96 526.2 810.13 526.29 810.13 526.29 1080.01 682.11 1080.17 682.19 1080.17 994.02 810.12 838.11 540.09 682.19 540.08 682.19 539.92 682.29 270.2 838.01 270.04 838.11 0.15 993.93 0 994.01 0 682.19 270.04 526.29 270.05 526.29 270.05 526.28 540.08 370.38"/></g></g></svg>