<svg id="visual" viewBox="0 0 900 600" width="900" height="600" xmlns="http://www.w3.org/2000/svg" xmlns:xlink="http://www.w3.org/1999/xlink" version="1.1"><rect x="0" y="0" width="900" height="600" fill="#140021"></rect><path d="M0 274L150 274L150 284L300 284L300 300L450 300L450 263L600 263L600 253L750 253L750 288L900 288L900 313L900 0L900 0L750 0L750 0L600 0L600 0L450 0L450 0L300 0L300 0L150 0L150 0L0 0Z" fill="#61ce70"></path><path d="M0 238L150 238L150 244L300 244L300 211L450 211L450 221L600 221L600 203L750 203L750 246L900 246L900 227L900 0L900 0L750 0L750 0L600 0L600 0L450 0L450 0L300 0L300 0L150 0L150 0L0 0Z" fill="#00a894"></path><path d="M0 132L150 132L150 181L300 181L300 164L450 164L450 184L600 184L600 187L750 187L750 140L900 140L900 182L900 0L900 0L750 0L750 0L600 0L600 0L450 0L450 0L300 0L300 0L150 0L150 0L0 0Z" fill="#007d8e"></path><path d="M0 127L150 127L150 133L300 133L300 120L450 120L450 111L600 111L600 97L750 97L750 102L900 102L900 118L900 0L900 0L750 0L750 0L600 0L600 0L450 0L450 0L300 0L300 0L150 0L150 0L0 0Z" fill="#005271"></path><path d="M0 77L150 77L150 59L300 59L300 39L450 39L450 78L600 78L600 61L750 61L750 82L900 82L900 43L900 0L900 0L750 0L750 0L600 0L600 0L450 0L450 0L300 0L300 0L150 0L150 0L0 0Z" fill="#00294b"></path></svg>