<svg id="visual" viewBox="0 0 900 600" width="900" height="600" xmlns="http://www.w3.org/2000/svg" xmlns:xlink="http://www.w3.org/1999/xlink" version="1.1"><rect x="0" y="0" width="900" height="600" fill="#140021"></rect><path d="M457 0L428 0L428 86L461 86L461 171L485 171L485 257L367 257L367 343L390 343L390 429L329 429L329 514L518 514L518 600L0 600L0 514L0 514L0 429L0 429L0 343L0 343L0 257L0 257L0 171L0 171L0 86L0 86L0 0L0 0Z" fill="#9900ff"></path><path d="M212 0L313 0L313 86L311 86L311 171L268 171L268 257L243 257L243 343L346 343L346 429L311 429L311 514L380 514L380 600L0 600L0 514L0 514L0 429L0 429L0 343L0 343L0 257L0 257L0 171L0 171L0 86L0 86L0 0L0 0Z" fill="#7700c6"></path><path d="M174 0L176 0L176 86L99 86L99 171L172 171L172 257L181 257L181 343L229 343L229 429L145 429L145 514L237 514L237 600L0 600L0 514L0 514L0 429L0 429L0 343L0 343L0 257L0 257L0 171L0 171L0 86L0 86L0 0L0 0Z" fill="#560090"></path></svg>