<svg id="visual" viewBox="0 0 900 600" width="900" height="600" xmlns="http://www.w3.org/2000/svg" xmlns:xlink="http://www.w3.org/1999/xlink" version="1.1"><g stroke-width="1" stroke-linejoin="bevel"><path d="M394 272L492 214L426 176Z" fill="#33bb7b" stroke="#33bb7b"></path><path d="M394 272L524 280L492 214Z" fill="#005763" stroke="#005763"></path><path d="M520 76L426 93L426 176Z" fill="#005763" stroke="#005763"></path><path d="M426 176L262 165L394 272Z" fill="#053241" stroke="#053241"></path><path d="M426 93L334 89L426 176Z" fill="#00101c" stroke="#00101c"></path><path d="M634 190L520 76L492 214Z" fill="#006b72" stroke="#006b72"></path><path d="M492 214L520 76L426 176Z" fill="#014453" stroke="#014453"></path><path d="M426 93L426 0L334 89Z" fill="#009482" stroke="#009482"></path><path d="M334 89L262 165L426 176Z" fill="#00a882" stroke="#00a882"></path><path d="M262 165L275 328L394 272Z" fill="#00101c" stroke="#00101c"></path><path d="M394 272L486 416L524 280Z" fill="#006b72" stroke="#006b72"></path><path d="M381 419L486 416L394 272Z" fill="#007f7d" stroke="#007f7d"></path><path d="M275 328L381 419L394 272Z" fill="#00a882" stroke="#00a882"></path><path d="M629 308L634 190L524 280Z" fill="#61ce70" stroke="#61ce70"></path><path d="M524 280L634 190L492 214Z" fill="#005763" stroke="#005763"></path><path d="M636 369L629 308L524 280Z" fill="#00a882" stroke="#00a882"></path><path d="M222 131L230 187L262 165Z" fill="#006b72" stroke="#006b72"></path><path d="M262 165L230 187L275 328Z" fill="#61ce70" stroke="#61ce70"></path><path d="M275 328L273 388L381 419Z" fill="#06212f" stroke="#06212f"></path><path d="M197 318L273 388L275 328Z" fill="#053241" stroke="#053241"></path><path d="M381 419L463 460L486 416Z" fill="#06212f" stroke="#06212f"></path><path d="M486 416L636 369L524 280Z" fill="#009482" stroke="#009482"></path><path d="M430 510L463 460L381 419Z" fill="#61ce70" stroke="#61ce70"></path><path d="M493 0L426 0L426 93Z" fill="#33bb7b" stroke="#33bb7b"></path><path d="M334 89L222 131L262 165Z" fill="#005763" stroke="#005763"></path><path d="M287 0L222 131L334 89Z" fill="#053241" stroke="#053241"></path><path d="M520 76L493 0L426 93Z" fill="#006b72" stroke="#006b72"></path><path d="M595 0L493 0L520 76Z" fill="#007f7d" stroke="#007f7d"></path><path d="M632 479L636 369L486 416Z" fill="#00a882" stroke="#00a882"></path><path d="M629 308L689 210L634 190Z" fill="#014453" stroke="#014453"></path><path d="M634 190L625 68L520 76Z" fill="#053241" stroke="#053241"></path><path d="M706 265L689 210L629 308Z" fill="#00101c" stroke="#00101c"></path><path d="M634 190L708 121L625 68Z" fill="#009482" stroke="#009482"></path><path d="M104 267L197 318L230 187Z" fill="#007f7d" stroke="#007f7d"></path><path d="M230 187L197 318L275 328Z" fill="#61ce70" stroke="#61ce70"></path><path d="M692 389L706 265L629 308Z" fill="#053241" stroke="#053241"></path><path d="M285 517L430 510L381 419Z" fill="#009482" stroke="#009482"></path><path d="M632 479L692 389L636 369Z" fill="#61ce70" stroke="#61ce70"></path><path d="M426 0L287 0L334 89Z" fill="#61ce70" stroke="#61ce70"></path><path d="M669 0L595 0L625 68Z" fill="#014453" stroke="#014453"></path><path d="M625 68L595 0L520 76Z" fill="#00a882" stroke="#00a882"></path><path d="M689 210L708 121L634 190Z" fill="#00101c" stroke="#00101c"></path><path d="M770 125L708 121L689 210Z" fill="#61ce70" stroke="#61ce70"></path><path d="M104 373L175 376L197 318Z" fill="#007f7d" stroke="#007f7d"></path><path d="M197 318L175 376L273 388Z" fill="#005763" stroke="#005763"></path><path d="M273 388L285 517L381 419Z" fill="#053241" stroke="#053241"></path><path d="M632 479L486 416L463 460Z" fill="#014453" stroke="#014453"></path><path d="M636 369L692 389L629 308Z" fill="#61ce70" stroke="#61ce70"></path><path d="M464 600L632 479L463 460Z" fill="#00101c" stroke="#00101c"></path><path d="M176 536L285 517L273 388Z" fill="#007f7d" stroke="#007f7d"></path><path d="M708 121L669 0L625 68Z" fill="#005763" stroke="#005763"></path><path d="M68 164L104 267L230 187Z" fill="#007f7d" stroke="#007f7d"></path><path d="M80 131L230 187L222 131Z" fill="#33bb7b" stroke="#33bb7b"></path><path d="M692 389L776 274L706 265Z" fill="#61ce70" stroke="#61ce70"></path><path d="M706 265L776 274L689 210Z" fill="#006b72" stroke="#006b72"></path><path d="M708 121L770 125L669 0Z" fill="#005763" stroke="#005763"></path><path d="M762 423L776 274L692 389Z" fill="#005763" stroke="#005763"></path><path d="M794 162L770 125L689 210Z" fill="#33bb7b" stroke="#33bb7b"></path><path d="M104 267L104 373L197 318Z" fill="#06212f" stroke="#06212f"></path><path d="M175 376L176 536L273 388Z" fill="#00101c" stroke="#00101c"></path><path d="M287 0L160 0L222 131Z" fill="#005763" stroke="#005763"></path><path d="M776 274L794 162L689 210Z" fill="#005763" stroke="#005763"></path><path d="M376 600L464 600L430 510Z" fill="#61ce70" stroke="#61ce70"></path><path d="M430 510L464 600L463 460Z" fill="#61ce70" stroke="#61ce70"></path><path d="M160 0L80 131L222 131Z" fill="#014453" stroke="#014453"></path><path d="M104 267L0 303L104 373Z" fill="#00a882" stroke="#00a882"></path><path d="M337 600L376 600L285 517Z" fill="#06212f" stroke="#06212f"></path><path d="M285 517L376 600L430 510Z" fill="#06212f" stroke="#06212f"></path><path d="M80 131L68 164L230 187Z" fill="#007f7d" stroke="#007f7d"></path><path d="M674 530L762 423L632 479Z" fill="#005763" stroke="#005763"></path><path d="M632 479L762 423L692 389Z" fill="#00101c" stroke="#00101c"></path><path d="M776 274L900 215L794 162Z" fill="#009482" stroke="#009482"></path><path d="M639 600L674 530L632 479Z" fill="#00101c" stroke="#00101c"></path><path d="M218 600L337 600L285 517Z" fill="#014453" stroke="#014453"></path><path d="M160 0L113 0L80 131Z" fill="#007f7d" stroke="#007f7d"></path><path d="M80 131L0 165L68 164Z" fill="#007f7d" stroke="#007f7d"></path><path d="M104 373L176 536L175 376Z" fill="#00101c" stroke="#00101c"></path><path d="M464 600L639 600L632 479Z" fill="#61ce70" stroke="#61ce70"></path><path d="M674 530L783 472L762 423Z" fill="#33bb7b" stroke="#33bb7b"></path><path d="M793 600L783 472L674 530Z" fill="#006b72" stroke="#006b72"></path><path d="M900 339L900 215L776 274Z" fill="#014453" stroke="#014453"></path><path d="M176 536L218 600L285 517Z" fill="#06212f" stroke="#06212f"></path><path d="M639 600L673 600L674 530Z" fill="#00a882" stroke="#00a882"></path><path d="M0 63L0 165L80 131Z" fill="#009482" stroke="#009482"></path><path d="M68 164L0 165L104 267Z" fill="#005763" stroke="#005763"></path><path d="M104 373L63 533L176 536Z" fill="#014453" stroke="#014453"></path><path d="M0 165L0 303L104 267Z" fill="#005763" stroke="#005763"></path><path d="M176 536L89 600L218 600Z" fill="#06212f" stroke="#06212f"></path><path d="M900 63L834 0L770 125Z" fill="#006b72" stroke="#006b72"></path><path d="M770 125L834 0L669 0Z" fill="#61ce70" stroke="#61ce70"></path><path d="M900 63L770 125L794 162Z" fill="#005763" stroke="#005763"></path><path d="M900 339L776 274L900 362Z" fill="#00a882" stroke="#00a882"></path><path d="M113 0L0 63L80 131Z" fill="#006b72" stroke="#006b72"></path><path d="M900 362L776 274L762 423Z" fill="#00101c" stroke="#00101c"></path><path d="M900 362L762 423L783 472Z" fill="#007f7d" stroke="#007f7d"></path><path d="M0 432L63 533L104 373Z" fill="#014453" stroke="#014453"></path><path d="M0 303L0 432L104 373Z" fill="#06212f" stroke="#06212f"></path><path d="M900 515L900 362L783 472Z" fill="#006b72" stroke="#006b72"></path><path d="M900 215L900 63L794 162Z" fill="#61ce70" stroke="#61ce70"></path><path d="M113 0L0 0L0 63Z" fill="#06212f" stroke="#06212f"></path><path d="M0 432L0 475L63 533Z" fill="#00a882" stroke="#00a882"></path><path d="M0 600L89 600L63 533Z" fill="#61ce70" stroke="#61ce70"></path><path d="M63 533L89 600L176 536Z" fill="#00101c" stroke="#00101c"></path><path d="M673 600L793 600L674 530Z" fill="#009482" stroke="#009482"></path><path d="M900 63L900 0L834 0Z" fill="#007f7d" stroke="#007f7d"></path><path d="M793 600L900 515L783 472Z" fill="#007f7d" stroke="#007f7d"></path><path d="M0 475L0 600L63 533Z" fill="#053241" stroke="#053241"></path><path d="M793 600L900 600L900 515Z" fill="#61ce70" stroke="#61ce70"></path></g></svg>