<svg id="visual" viewBox="0 0 900 600" width="900" height="600" xmlns="http://www.w3.org/2000/svg" xmlns:xlink="http://www.w3.org/1999/xlink" version="1.1"><rect width="900" height="600" fill="#00294B"></rect><g><g transform="translate(715 115)"><path d="M84.4 -30.6C95.2 5.8 80 47.5 51 68.1C22 88.6 -20.8 88.1 -48.2 67.8C-75.6 47.5 -87.6 7.6 -77 -28.5C-66.4 -64.6 -33.2 -96.9 1.8 -97.5C36.8 -98.1 73.6 -67 84.4 -30.6Z" stroke="#61CE70" fill="none" stroke-width="20"></path></g><g transform="translate(10 284)"><path d="M65 -23.7C72.6 2.3 59.1 32.6 36 49.3C12.9 66 -19.9 69.2 -39.3 54.9C-58.8 40.6 -64.9 8.7 -56.1 -18.8C-47.4 -46.4 -23.7 -69.6 2.5 -70.4C28.7 -71.3 57.4 -49.6 65 -23.7Z" stroke="#61CE70" fill="none" stroke-width="20"></path></g><g transform="translate(426 428)"><path d="M65.8 -24.2C73.3 1.7 59.2 31.9 35.2 49.6C11.2 67.4 -22.8 72.7 -42.3 58.4C-61.9 44.2 -67 10.4 -57.6 -18.2C-48.2 -46.8 -24.1 -70.2 2.5 -71C29.2 -71.8 58.3 -50.1 65.8 -24.2Z" stroke="#61CE70" fill="none" stroke-width="20"></path></g><g transform="translate(792 568)"><path d="M74.7 -24.1C83.5 2.6 67.9 37.4 43.6 53.6C19.2 69.8 -14 67.4 -37.6 50.5C-61.3 33.6 -75.4 2.3 -67.5 -23.2C-59.6 -48.8 -29.8 -68.5 1.6 -69C33 -69.5 66 -50.8 74.7 -24.1Z" stroke="#61CE70" fill="none" stroke-width="20"></path></g></g></svg>