<svg id="visual" viewBox="0 0 900 600" width="900" height="600" xmlns="http://www.w3.org/2000/svg" xmlns:xlink="http://www.w3.org/1999/xlink" version="1.1"><rect x="0" y="0" width="900" height="600" fill="#001220"></rect><defs><linearGradient id="grad1_0" x1="33.3%" y1="100%" x2="100%" y2="0%"><stop offset="20%" stop-color="#001220" stop-opacity="1"></stop><stop offset="80%" stop-color="#001220" stop-opacity="1"></stop></linearGradient></defs><defs><linearGradient id="grad2_0" x1="0%" y1="100%" x2="66.7%" y2="0%"><stop offset="20%" stop-color="#001220" stop-opacity="1"></stop><stop offset="80%" stop-color="#001220" stop-opacity="1"></stop></linearGradient></defs><g transform="translate(900, 600)"><path d="M-216.3 0C-192.7 -12.9 -169.1 -25.9 -167.1 -44.8C-165.1 -63.7 -184.7 -88.6 -183.6 -106C-182.5 -123.4 -160.6 -133.3 -144.2 -144.2C-127.9 -155.2 -117.1 -167.4 -103.5 -179.3C-89.9 -191.2 -73.7 -202.8 -56 -209C-38.3 -215.1 -19.1 -215.7 0 -216.3L0 0Z" fill="#61CE70"></path></g><g transform="translate(0, 0)"><path d="M216.3 0C209.7 18.1 203 36.2 194.2 52C185.3 67.9 174.2 81.5 165.4 95.5C156.6 109.5 150.1 123.9 142.1 142.1C134.2 160.4 124.7 182.5 108.2 187.3C91.6 192.2 67.9 179.7 48.7 181.6C29.4 183.5 14.7 199.9 0 216.3L0 0Z" fill="#61CE70"></path></g></svg>