<svg id="visual" viewBox="0 0 900 600" width="900" height="600" xmlns="http://www.w3.org/2000/svg" xmlns:xlink="http://www.w3.org/1999/xlink" version="1.1"><path d="M0 67L82 67L82 97L164 97L164 145L245 145L245 61L327 61L327 73L409 73L409 109L491 109L491 55L573 55L573 169L655 169L655 127L736 127L736 55L818 55L818 55L900 55L900 73L900 0L900 0L818 0L818 0L736 0L736 0L655 0L655 0L573 0L573 0L491 0L491 0L409 0L409 0L327 0L327 0L245 0L245 0L164 0L164 0L82 0L82 0L0 0Z" fill="#61ce70"></path><path d="M0 247L82 247L82 319L164 319L164 343L245 343L245 295L327 295L327 205L409 205L409 247L491 247L491 211L573 211L573 295L655 295L655 355L736 355L736 217L818 217L818 163L900 163L900 235L900 71L900 53L818 53L818 53L736 53L736 125L655 125L655 167L573 167L573 53L491 53L491 107L409 107L409 71L327 71L327 59L245 59L245 143L164 143L164 95L82 95L82 65L0 65Z" fill="#00a894"></path><path d="M0 319L82 319L82 385L164 385L164 421L245 421L245 343L327 343L327 301L409 301L409 349L491 349L491 301L573 301L573 337L655 337L655 409L736 409L736 307L818 307L818 265L900 265L900 325L900 233L900 161L818 161L818 215L736 215L736 353L655 353L655 293L573 293L573 209L491 209L491 245L409 245L409 203L327 203L327 293L245 293L245 341L164 341L164 317L82 317L82 245L0 245Z" fill="#007d8e"></path><path d="M0 511L82 511L82 547L164 547L164 529L245 529L245 493L327 493L327 523L409 523L409 511L491 511L491 541L573 541L573 523L655 523L655 511L736 511L736 481L818 481L818 487L900 487L900 517L900 323L900 263L818 263L818 305L736 305L736 407L655 407L655 335L573 335L573 299L491 299L491 347L409 347L409 299L327 299L327 341L245 341L245 419L164 419L164 383L82 383L82 317L0 317Z" fill="#005271"></path><path d="M0 601L82 601L82 601L164 601L164 601L245 601L245 601L327 601L327 601L409 601L409 601L491 601L491 601L573 601L573 601L655 601L655 601L736 601L736 601L818 601L818 601L900 601L900 601L900 515L900 485L818 485L818 479L736 479L736 509L655 509L655 521L573 521L573 539L491 539L491 509L409 509L409 521L327 521L327 491L245 491L245 527L164 527L164 545L82 545L82 509L0 509Z" fill="#00294b"></path></svg>