<svg id="visual" viewBox="0 0 900 600" width="900" height="600" xmlns="http://www.w3.org/2000/svg" xmlns:xlink="http://www.w3.org/1999/xlink" version="1.1"><rect x="0" y="0" width="900" height="600" fill="#140021"></rect><path d="M466 0L403 0L403 100L353 100L353 200L370 200L370 300L367 300L367 400L354 400L354 500L471 500L471 600L0 600L0 500L0 500L0 400L0 400L0 300L0 300L0 200L0 200L0 100L0 100L0 0L0 0Z" fill="#61ce70"></path><path d="M290 0L323 0L323 100L334 100L334 200L282 200L282 300L304 300L304 400L386 400L386 500L391 500L391 600L0 600L0 500L0 500L0 400L0 400L0 300L0 300L0 200L0 200L0 100L0 100L0 0L0 0Z" fill="#00a894"></path><path d="M242 0L245 0L245 100L226 100L226 200L243 200L243 300L207 300L207 400L213 400L213 500L202 500L202 600L0 600L0 500L0 500L0 400L0 400L0 300L0 300L0 200L0 200L0 100L0 100L0 0L0 0Z" fill="#007d8e"></path><path d="M138 0L124 0L124 100L201 100L201 200L202 200L202 300L166 300L166 400L193 400L193 500L203 500L203 600L0 600L0 500L0 500L0 400L0 400L0 300L0 300L0 200L0 200L0 100L0 100L0 0L0 0Z" fill="#005271"></path><path d="M115 0L114 0L114 100L96 100L96 200L118 200L118 300L51 300L51 400L94 400L94 500L110 500L110 600L0 600L0 500L0 500L0 400L0 400L0 300L0 300L0 200L0 200L0 100L0 100L0 0L0 0Z" fill="#00294b"></path></svg>